/* XPM */
static char * 1_xpm[] = {
"51 57 12 1",
" 	c #F5FF88",
".	c #E1EA7D",
"+	c #B8C066",
"@	c #8F954F",
"#	c #666A39",
"$	c #3D4022",
"%	c #14150B",
"&	c #000000",
"*	c #13140B",
"=	c #3D3F22",
"-	c #8E944F",
";	c #B8BF66",
"                                                   ",
"                                                   ",
"                                                   ",
"                                                   ",
"                                                   ",
"                                                   ",
"                                                   ",
"                                                   ",
"                                                   ",
"                                                   ",
"                                                   ",
"                                                   ",
"                                                   ",
"                                                   ",
"                  .+@#$%&&&&&&                     ",
"                  &&&&&&&&&&&&                     ",
"                  &&&&&&&&&&&&                     ",
"                  &&&&&&&&&&&&                     ",
"                  &&&&&&&&&&&&                     ",
"                  *=#-;.&&&&&&                     ",
"                        &&&&&&                     ",
"                        &&&&&&                     ",
"                        &&&&&&                     ",
"                        &&&&&&                     ",
"                        &&&&&&                     ",
"                        &&&&&&                     ",
"                        &&&&&&                     ",
"                        &&&&&&                     ",
"                        &&&&&&                     ",
"                        &&&&&&                     ",
"                        &&&&&&                     ",
"                        &&&&&&                     ",
"                        &&&&&&                     ",
"                        &&&&&&                     ",
"                        &&&&&&                     ",
"                  &&&&&&&&&&&&&&&&&&               ",
"                  &&&&&&&&&&&&&&&&&&               ",
"                  &&&&&&&&&&&&&&&&&&               ",
"                  &&&&&&&&&&&&&&&&&&               ",
"                  &&&&&&&&&&&&&&&&&&               ",
"                                                   ",
"                                                   ",
"                                                   ",
"                                                   ",
"                                                   ",
"                                                   ",
"                                                   ",
"                                                   ",
"                                                   ",
"                                                   ",
"                                                   ",
"                                                   ",
"                                                   ",
"                                                   ",
"                                                   ",
"                                                   ",
"                                                   "};
