/* XPM */
static char * 10_xpm[] = {
"51 57 84 1",
" 	c #F5FF88",
".	c #E1EA7D",
"+	c #B8C066",
"@	c #8F954F",
"#	c #666A39",
"$	c #3D4022",
"%	c #14150B",
"&	c #000000",
"*	c #464927",
"=	c #222313",
"-	c #0C0C06",
";	c #0B0B06",
">	c #212212",
",	c #454826",
"'	c #F3FD87",
")	c #878D4B",
"!	c #0D0E07",
"~	c #888E4C",
"{	c #F2FC86",
"]	c #595D32",
"^	c #5C6033",
"/	c #6E723D",
"(	c #71763F",
"_	c #C2CA6C",
":	c #020201",
"<	c #15160C",
"[	c #A2A95A",
"}	c #E6EF7F",
"|	c #E7F080",
"1	c #A4AB5B",
"2	c #16170C",
"3	c #030302",
"4	c #C6CE6E",
"5	c #13140B",
"6	c #3D3F22",
"7	c #8E944F",
"8	c #B8BF66",
"9	c #C4CC6D",
"0	c #C5CD6D",
"a	c #494C29",
"b	c #DCE57A",
"c	c #484B28",
"d	c #040402",
"e	c #DEE77B",
"f	c #919751",
"g	c #8D934E",
"h	c #8C924E",
"i	c #929851",
"j	c #5F6335",
"k	c #BAC267",
"l	c #B9C167",
"m	c #616536",
"n	c #31331B",
"o	c #D5DE76",
"p	c #D3DC75",
"q	c #33351C",
"r	c #1B1C0F",
"s	c #E9F281",
"t	c #E8F181",
"u	c #1D1E10",
"v	c #0C0D07",
"w	c #F0FA85",
"x	c #EEF884",
"y	c #0E0F08",
"z	c #F4FE87",
"A	c #EFF985",
"B	c #1C1D0F",
"C	c #D1DA74",
"D	c #32341C",
"E	c #5E6234",
"F	c #606435",
"G	c #909650",
"H	c #8B914D",
"I	c #8A904D",
"J	c #DBE47A",
"K	c #444726",
"L	c #DDE67B",
"M	c #C3CB6C",
"N	c #C1C96B",
"O	c #A3AA5B",
"P	c #585C31",
"Q	c #0A0A05",
"R	c #202112",
"S	c #E0E97C",
"                                                   ",
"                                                   ",
"                                                   ",
"                                                   ",
"                                                   ",
"                                                   ",
"                                                   ",
"                                                   ",
"                                                   ",
"                                                   ",
"                                                   ",
"                                                   ",
"                                                   ",
"                                                   ",
"                                                   ",
"                                                   ",
"      .+@#$%&&&&&&               .@*=-;>,@.        ",
"      &&&&&&&&&&&&             ')!&&&&&&&&!~'      ",
"      &&&&&&&&&&&&            {]&&&&&&&&&&&&^'     ",
"      &&&&&&&&&&&&            /&&&&&&&&&&&&&&(     ",
"      &&&&&&&&&&&&           _:&&&&<[}|12&&&&34    ",
"      56#78.&&&&&&           *&&&&39    03&&&&a    ",
"            &&&&&&          b3&&&&c      *&&&&de   ",
"            &&&&&&          f&&&&&g      h&&&&&i   ",
"            &&&&&&          j&&&&&k      l&&&&&m   ",
"            &&&&&&          n&&&&&o      p&&&&&q   ",
"            &&&&&&          r&&&&&s      t&&&&&u   ",
"            &&&&&&          v&&&&&w      x&&&&&y   ",
"            &&&&&&          3&&&&&z      '&&&&&3   ",
"            &&&&&&          v&&&&&A      x&&&&&y   ",
"            &&&&&&          r&&&&&t      |&&&&&B   ",
"            &&&&&&          n&&&&&p      C&&&&&D   ",
"            &&&&&&          E&&&&&+      8&&&&&F   ",
"            &&&&&&          G&&&&&H      I&&&&&f   ",
"            &&&&&&          J:&&&&*      K&&&&3L   ",
"            &&&&&&           ,&&&&3M    M3&&&&c    ",
"      &&&&&&&&&&&&&&&&&&     N:&&&&<[|tO<&&&&39    ",
"      &&&&&&&&&&&&&&&&&&      /&&&&&&&&&&&&&&(     ",
"      &&&&&&&&&&&&&&&&&&      {P&&&&&&&&&&&&^'     ",
"      &&&&&&&&&&&&&&&&&&       ')!&&&&&&&&!~'      ",
"      &&&&&&&&&&&&&&&&&&         .7,>;QRK7S        ",
"                                                   ",
"                                                   ",
"                                                   ",
"                                                   ",
"                                                   ",
"                                                   ",
"                                                   ",
"                                                   ",
"                                                   ",
"                                                   ",
"                                                   ",
"                                                   ",
"                                                   ",
"                                                   ",
"                                                   ",
"                                                   "};
