/* XPM */
static char * 2_xpm[] = {
"51 57 76 1",
" 	c #F5FF88",
".	c #F4FE87",
"+	c #C6CE6E",
"@	c #868B4A",
"#	c #565A30",
"$	c #2C2E19",
"%	c #15160C",
"&	c #070704",
"*	c #2D2F19",
"=	c #5C6033",
"-	c #9AA055",
";	c #E9F382",
">	c #C7CF6E",
",	c #6B6F3B",
"'	c #16170C",
")	c #000000",
"!	c #0B0B06",
"~	c #7F8446",
"{	c #EFF985",
"]	c #393B1F",
"^	c #E8F181",
"/	c #454826",
"(	c #14150B",
"_	c #737840",
":	c #BFC76A",
"<	c #EDF784",
"[	c #CDD572",
"}	c #7C8145",
"|	c #AAB15E",
"1	c #767B42",
"2	c #EBF583",
"3	c #CBD371",
"4	c #0F1009",
"5	c #52552D",
"6	c #2F311A",
"7	c #D2DB75",
"8	c #8C924E",
"9	c #1E1F11",
"0	c #5E6234",
"a	c #DAE379",
"b	c #EEF884",
"c	c #0D0E07",
"d	c #D0D974",
"e	c #202112",
"f	c #D8E178",
"g	c #787D43",
"h	c #E7F080",
"i	c #32341C",
"j	c #BAC267",
"k	c #DBE47A",
"l	c #34361D",
"m	c #2E301A",
"n	c #ADB460",
"o	c #12130A",
"p	c #020201",
"q	c #BBC368",
"r	c #F0FA85",
"s	c #6E723D",
"t	c #010101",
"u	c #797E43",
"v	c #D5DE76",
"w	c #33351C",
"x	c #50532C",
"y	c #F3FD87",
"z	c #A4AB5B",
"A	c #0E0F08",
"B	c #474A27",
"C	c #646837",
"D	c #040402",
"E	c #828748",
"F	c #CFD773",
"G	c #1D1E10",
"H	c #BEC66A",
"I	c #9BA156",
"J	c #4D502B",
"K	c #E5EE7F",
"                                                   ",
"                                                   ",
"                                                   ",
"                                                   ",
"                                                   ",
"                                                   ",
"                                                   ",
"                                                   ",
"                                                   ",
"                                                   ",
"                                                   ",
"                                                   ",
"                                                   ",
"                                                   ",
"                                                   ",
"                   .+@#$%&&%*=-;                   ",
"                 >,')))))))))))!~{                 ",
"                 ))))))))))))))))]^                ",
"                 )))))))))))))))))/                ",
"                 ))))(_:;<[}!))))))|               ",
"                 ))&12      34)))))5               ",
"                 )67         8)))))9               ",
"                 0<          a)))))&               ",
"                             b)))))c               ",
"                             d)))))e               ",
"                             })))))/               ",
"                            fc)))))g               ",
"                           hi))))))j               ",
"                          kl))))))m                ",
"                         no))))))pq                ",
"                       rst)))))))u                 ",
"                      vw))))))))xy                 ",
"                     zA))))))))Bb                  ",
"                   <C))))))))DE.                   ",
"                  F$))))))))GH                     ",
"                 I!))))))))JK                      ",
"                 )))))))))))))))))))               ",
"                 )))))))))))))))))))               ",
"                 )))))))))))))))))))               ",
"                 )))))))))))))))))))               ",
"                 )))))))))))))))))))               ",
"                                                   ",
"                                                   ",
"                                                   ",
"                                                   ",
"                                                   ",
"                                                   ",
"                                                   ",
"                                                   ",
"                                                   ",
"                                                   ",
"                                                   ",
"                                                   ",
"                                                   ",
"                                                   ",
"                                                   ",
"                                                   "};
