/* XPM */
static char * 3_xpm[] = {
"51 57 82 1",
" 	c #F5FF88",
".	c #000000",
"+	c #020201",
"@	c #0C0D07",
"#	c #1A1B0E",
"$	c #3B3D21",
"%	c #646837",
"&	c #AAB15E",
"*	c #EDF784",
"=	c #191A0E",
"-	c #9AA055",
";	c #777C42",
">	c #010101",
",	c #BAC267",
"'	c #212212",
")	c #626636",
"!	c #959B53",
"~	c #BFC76A",
"{	c #DBE47A",
"]	c #EBF583",
"^	c #F0FA85",
"/	c #D6DF77",
"(	c #A9B05E",
"_	c #3A3C20",
":	c #55582F",
"<	c #F4FE87",
"[	c #585C31",
"}	c #1C1D0F",
"|	c #D1DA74",
"1	c #070704",
"2	c #EFF985",
"3	c #18190D",
"4	c #CFD773",
"5	c #393B1F",
"6	c #909650",
"7	c #D8E178",
"8	c #A4AB5B",
"9	c #3C3E21",
"0	c #2B2D18",
"a	c #3E4123",
"b	c #E1EA7D",
"c	c #52552D",
"d	c #DFE87C",
"e	c #090905",
"f	c #7E8346",
"g	c #F3FD87",
"h	c #636737",
"i	c #DDE67B",
"j	c #B8C066",
"k	c #16170C",
"l	c #B1B862",
"m	c #E5EE7F",
"n	c #37391E",
"o	c #4C4F2A",
"p	c #C4CC6D",
"q	c #EEF884",
"r	c #050503",
"s	c #CAD270",
"t	c #17180D",
"u	c #383A1F",
"v	c #F2FC86",
"w	c #ECF683",
"x	c #424525",
"y	c #15160C",
"z	c #9FA659",
"A	c #E6EF7F",
"B	c #E9F382",
"C	c #CBD371",
"D	c #8C924E",
"E	c #242514",
"F	c #979D54",
"G	c #36381E",
"H	c #878D4B",
"I	c #D9E279",
"J	c #A1A85A",
"K	c #72773F",
"L	c #4B4E2A",
"M	c #2D2F19",
"N	c #12130A",
"O	c #484B28",
"P	c #B6BD65",
"Q	c #F1FB86",
"                                                   ",
"                                                   ",
"                                                   ",
"                                                   ",
"                                                   ",
"                                                   ",
"                                                   ",
"                                                   ",
"                                                   ",
"                                                   ",
"                                                   ",
"                                                   ",
"                                                   ",
"                                                   ",
"                                                   ",
"               .......+@#$%&*                      ",
"               .............=-                     ",
"               ...............;                    ",
"               ...............>,                   ",
"               ')!~{]^/(_......:                   ",
"                        <[.....}                   ",
"                         |.....1                   ",
"                         2.....3                   ",
"                         4.....5                   ",
"                        <:.....6                   ",
"                     2789.....0]                   ",
"                  ...........ab                    ",
"                  ..........cd                     ",
"                  ...........efg                   ",
"                  .............h                   ",
"                     *ij;k......l                  ",
"                         mn.....o                  ",
"                          p.....k                  ",
"                          q.....r                  ",
"                          s.....t                  ",
"              u(v        wx.....a                  ",
"              ..y%z4AvBCDE......F                  ",
"              .................uv                  ",
"              ................Gd                   ",
"              ..............yHq                    ",
"              IJKLMke+1NEOKPQ                      ",
"                                                   ",
"                                                   ",
"                                                   ",
"                                                   ",
"                                                   ",
"                                                   ",
"                                                   ",
"                                                   ",
"                                                   ",
"                                                   ",
"                                                   ",
"                                                   ",
"                                                   ",
"                                                   ",
"                                                   ",
"                                                   "};
