/* XPM */
static char * 4_xpm[] = {
"51 57 43 1",
" 	c #F5FF88",
".	c #F0FA85",
"+	c #2B2D18",
"@	c #000000",
"#	c #7B8044",
"$	c #CBD371",
"%	c #060603",
"&	c #F2FC86",
"*	c #33351C",
"=	c #858A4A",
"-	c #D1DA74",
";	c #090905",
">	c #50532C",
",	c #F4FE87",
"'	c #3C3E21",
")	c #11120A",
"!	c #DFE87C",
"~	c #8E944F",
"{	c #9CA256",
"]	c #D7E077",
"^	c #0C0C06",
"/	c #474A27",
"(	c #444726",
"_	c #0D0E07",
":	c #DAE379",
"<	c #999F55",
"[	c #929851",
"}	c #DDE67B",
"|	c #101109",
"1	c #3E4123",
"2	c #4D502B",
"3	c #0A0A05",
"4	c #D3DC75",
"5	c #A2A95A",
"6	c #888E4C",
"7	c #E3EC7E",
"8	c #15160C",
"9	c #36381E",
"0	c #F3FD87",
"a	c #565A30",
"b	c #070704",
"c	c #CED672",
"d	c #7F8446",
"                                                   ",
"                                                   ",
"                                                   ",
"                                                   ",
"                                                   ",
"                                                   ",
"                                                   ",
"                                                   ",
"                                                   ",
"                                                   ",
"                                                   ",
"                                                   ",
"                                                   ",
"                                                   ",
"                                                   ",
"                         .+@@@@@@@                 ",
"                         #@@@@@@@@                 ",
"                        $%@@@@@@@@                 ",
"                       &*@@@@@@@@@                 ",
"                       =@@@@@@@@@@                 ",
"                      -;@@@>@@@@@@                 ",
"                     ,'@@@)!@@@@@@                 ",
"                     ~@@@@{ @@@@@@                 ",
"                    ]^@@@/  @@@@@@                 ",
"                    (@@@_:  @@@@@@                 ",
"                   <@@@@[   @@@@@@                 ",
"                  }|@@@1,   @@@@@@                 ",
"                  2@@@34    @@@@@@                 ",
"                 5@@@@6     @@@@@@                 ",
"                78@@@90     @@@@@@                 ",
"                a@@@bc      @@@@@@                 ",
"                @@@@d       @@@@@@                 ",
"                @@@@@@@@@@@@@@@@@@@@@@             ",
"                @@@@@@@@@@@@@@@@@@@@@@             ",
"                @@@@@@@@@@@@@@@@@@@@@@             ",
"                @@@@@@@@@@@@@@@@@@@@@@             ",
"                @@@@@@@@@@@@@@@@@@@@@@             ",
"                            @@@@@@                 ",
"                            @@@@@@                 ",
"                            @@@@@@                 ",
"                            @@@@@@                 ",
"                                                   ",
"                                                   ",
"                                                   ",
"                                                   ",
"                                                   ",
"                                                   ",
"                                                   ",
"                                                   ",
"                                                   ",
"                                                   ",
"                                                   ",
"                                                   ",
"                                                   ",
"                                                   ",
"                                                   ",
"                                                   "};
