/* XPM */
static char * 5_xpm[] = {
"51 57 71 1",
" 	c #F5FF88",
".	c #000000",
"+	c #414424",
"@	c #191A0E",
"#	c #050503",
"$	c #070704",
"%	c #17180D",
"&	c #30321B",
"*	c #676B39",
"=	c #ADB460",
"-	c #F3FD87",
";	c #232413",
">	c #B2B963",
",	c #010101",
"'	c #828748",
")	c #9FA558",
"!	c #1E1F11",
"~	c #72773F",
"{	c #B0B762",
"]	c #DDE67B",
"^	c #EFF985",
"/	c #E7F080",
"(	c #B9C167",
"_	c #5C6033",
":	c #15160C",
"<	c #E9F382",
"[	c #3A3C20",
"}	c #F4FE87",
"|	c #A4AB5B",
"1	c #020201",
"2	c #8F954F",
"3	c #686C3A",
"4	c #4A4D29",
"5	c #C4CC6D",
"6	c #1F2011",
"7	c #EBF583",
"8	c #0B0B06",
"9	c #EAF482",
"0	c #C3CB6C",
"a	c #202112",
"b	c #666A39",
"c	c #4F522C",
"d	c #33351C",
"e	c #9BA156",
"f	c #ECF683",
"g	c #A5AC5C",
"h	c #9AA055",
"i	c #909650",
"j	c #C1C96B",
"k	c #E1EA7D",
"l	c #F1FB86",
"m	c #E8F181",
"n	c #BBC368",
"o	c #5E6234",
"p	c #B8BF66",
"q	c #A9B05E",
"r	c #464927",
"s	c #D4DD76",
"t	c #DBE47A",
"u	c #A7AE5D",
"v	c #7A7F44",
"w	c #55582F",
"x	c #36381E",
"y	c #0D0E07",
"z	c #060603",
"A	c #030302",
"B	c #0F1009",
"C	c #212212",
"D	c #494C29",
"E	c #808547",
"F	c #D1DA74",
"                                                   ",
"                                                   ",
"                                                   ",
"                                                   ",
"                                                   ",
"                                                   ",
"                                                   ",
"                                                   ",
"                                                   ",
"                                                   ",
"                                                   ",
"                                                   ",
"                                                   ",
"                                                   ",
"                                                   ",
"                                                   ",
"                                                   ",
"                                                   ",
"                 ................                  ",
"                 ................                  ",
"                 ................                  ",
"                 ................                  ",
"                 ................                  ",
"                 .....                             ",
"                 .....                             ",
"                 .....                             ",
"                 .....+@#$%&*=-                    ",
"                 .............;>                   ",
"                 ..............,'                  ",
"                 ................)                 ",
"                 ..!~{]^/(_,.....:<                ",
"                 [{}       |1.....2                ",
"                            3.....4                ",
"                            5.....6                ",
"                            7.....8                ",
"                            9.....8                ",
"                            0.....a                ",
"                            b.....c                ",
"                def        g1.....h                ",
"                ..8cijklmno,.....;^                ",
"                ................$p                 ",
"                ...............8q                  ",
"                .............,rs                   ",
"                tuvwxayzABCDEF                     ",
"                                                   ",
"                                                   ",
"                                                   ",
"                                                   ",
"                                                   ",
"                                                   ",
"                                                   ",
"                                                   ",
"                                                   ",
"                                                   ",
"                                                   ",
"                                                   ",
"                                                   "};
