/* XPM */
static char * 6_xpm[] = {
"51 57 95 2",
"  	c #F5FF88",
". 	c #E9F382",
"+ 	c #A2A95A",
"@ 	c #595D32",
"# 	c #2B2D18",
"$ 	c #16170C",
"% 	c #040402",
"& 	c #090905",
"* 	c #18190D",
"= 	c #34361D",
"- 	c #5D6134",
"; 	c #919751",
"> 	c #D3DC75",
", 	c #F1FB86",
"' 	c #8F954F",
") 	c #13140B",
"! 	c #000000",
"~ 	c #EAF482",
"{ 	c #414424",
"] 	c #ECF683",
"^ 	c #35371D",
"/ 	c #686C3A",
"( 	c #6D713C",
"_ 	c #BEC66A",
": 	c #E5EE7F",
"< 	c #EFF985",
"[ 	c #D7E077",
"} 	c #9EA457",
"| 	c #494C29",
"1 	c #020201",
"2 	c #BAC267",
"3 	c #010101",
"4 	c #191A0E",
"5 	c #CAD270",
"6 	c #CED672",
"7 	c #464927",
"8 	c #4B4E2A",
"9 	c #BBC368",
"0 	c #D8E178",
"a 	c #474A27",
"b 	c #959B53",
"c 	c #9AA055",
"d 	c #5E6234",
"e 	c #D0D974",
"f 	c #BDC569",
"g 	c #646837",
"h 	c #2A2C17",
"i 	c #0D0E07",
"j 	c #050503",
"k 	c #393B1F",
"l 	c #777C42",
"m 	c #D5DE76",
"n 	c #2F311A",
"o 	c #404324",
"p 	c #6A6E3B",
"q 	c #1C1D0F",
"r 	c #3B3D21",
"s 	c #EDF784",
"t 	c #0C0D07",
"u 	c #5A5E32",
"v 	c #676B39",
"w 	c #D4DD76",
"x 	c #F0FA85",
"y 	c #656938",
"z 	c #C2CA6C",
"A 	c #101109",
"B 	c #54572E",
"C 	c #1F2011",
"D 	c #B8C066",
"E 	c #B8BF66",
"F 	c #272916",
"G 	c #E6EF7F",
"H 	c #696D3A",
"I 	c #F2FC86",
"J 	c #080804",
"K 	c #9DA357",
"L 	c #1E1F11",
"M 	c #E7F080",
"N 	c #929851",
"O 	c #0A0A05",
"P 	c #1A1B0E",
"Q 	c #8C924E",
"R 	c #AAB15E",
"S 	c #7A7F44",
"T 	c #292B17",
"U 	c #BCC469",
"V 	c #EBF583",
"W 	c #9FA558",
"X 	c #252715",
"Y 	c #0F1009",
"Z 	c #14150B",
"` 	c #2E301A",
" .	c #666A39",
"..	c #B0B762",
"+.	c #F4FE87",
"                                                                                                      ",
"                                                                                                      ",
"                                                                                                      ",
"                                                                                                      ",
"                                                                                                      ",
"                                                                                                      ",
"                                                                                                      ",
"                                                                                                      ",
"                                                                                                      ",
"                                                                                                      ",
"                                                                                                      ",
"                                                                                                      ",
"                                                                                                      ",
"                                                                                                      ",
"                                                                                                      ",
"                                            . + @ # $ % & * = - ; >                                   ",
"                                        , ' ) ! ! ! ! ! ! ! ! ! ! !                                   ",
"                                      ~ { ! ! ! ! ! ! ! ! ! ! ! ! !                                   ",
"                                    ] ^ ! ! ! ! ! ! ! ! ! ! ! ! ! !                                   ",
"                                    / ! ! ! ! ! & ( _ : < [ } | 1 !                                   ",
"                                  2 3 ! ! ! ! 4 5               6 7                                   ",
"                                  8 ! ! ! ! ! 9                                                       ",
"                                0 1 ! ! ! ! a                                                         ",
"                                b ! ! ! ! ! c                                                         ",
"                                d ! ! ! ! ! e f g h i j $ k l m                                       ",
"                                n ! ! ! ! ! o ! ! ! ! ! ! ! ! % p <                                   ",
"                                q ! ! ! ! ! ! ! ! ! ! ! ! ! ! ! ! r s                                 ",
"                                t ! ! ! ! ! ! ! ! ! ! ! ! ! ! ! ! ! u                                 ",
"                                % ! ! ! ! ! ! ! v w x > y ! ! ! ! ! ! z                               ",
"                                A ! ! ! ! ! ! B           B ! ! ! ! ! y                               ",
"                                C ! ! ! ! ! ! D           E ! ! ! ! ! F                               ",
"                                k ! ! ! ! ! ! G           G ! ! ! ! ! i                               ",
"                                H ! ! ! ! ! ! I           I ! ! ! ! ! J                               ",
"                                K ! ! ! ! ! ! G           G ! ! ! ! ! L                               ",
"                                M & ! ! ! ! ! D           E ! ! ! ! ! |                               ",
"                                  u ! ! ! ! ! B           B ! ! ! ! ! N                               ",
"                                  m O ! ! ! ! ! v m x w y ! ! ! ! ! P ]                               ",
"                                    Q ! ! ! ! ! ! ! ! ! ! ! ! ! ! 1 R                                 ",
"                                      S ! ! ! ! ! ! ! ! ! ! ! ! % N                                   ",
"                                        + q ! ! ! ! ! ! ! ! ! T U                                     ",
"                                          V W B X Y j Z `  ...+.                                      ",
"                                                                                                      ",
"                                                                                                      ",
"                                                                                                      ",
"                                                                                                      ",
"                                                                                                      ",
"                                                                                                      ",
"                                                                                                      ",
"                                                                                                      ",
"                                                                                                      ",
"                                                                                                      ",
"                                                                                                      ",
"                                                                                                      ",
"                                                                                                      ",
"                                                                                                      ",
"                                                                                                      ",
"                                                                                                      "};
