/* XPM */
static char * 7_xpm[] = {
"51 57 56 1",
" 	c #F5FF88",
".	c #000000",
"+	c #020201",
"@	c #4E512B",
"#	c #A7AE5D",
"$	c #BBC368",
"%	c #3B3D21",
"&	c #32341C",
"*	c #C4CC6D",
"=	c #9FA558",
"-	c #565A30",
";	c #1A1B0E",
">	c #F0FA85",
",	c #DBE47A",
"'	c #050503",
")	c #828748",
"!	c #737840",
"~	c #0B0B06",
"{	c #E5EE7F",
"]	c #EBF583",
"^	c #101109",
"/	c #666A39",
"(	c #8F954F",
"_	c #010101",
":	c #D0D974",
"<	c #F4FE87",
"[	c #252614",
"}	c #494C29",
"|	c #ABB25F",
"1	c #B7BE65",
"2	c #3E4123",
"3	c #2D2F19",
"4	c #C8D06F",
"5	c #9AA055",
"6	c #5A5E32",
"7	c #17180D",
"8	c #EFF985",
"9	c #DEE77B",
"0	c #060603",
"a	c #7E8346",
"b	c #777C42",
"c	c #080804",
"d	c #E2EB7D",
"e	c #ECF683",
"f	c #13140B",
"g	c #616536",
"h	c #939952",
"i	c #CDD572",
"j	c #272916",
"k	c #454826",
"l	c #AFB661",
"m	c #B2B963",
"n	c #424525",
"o	c #292B17",
"p	c #CBD371",
"q	c #959B53",
"                                                   ",
"                                                   ",
"                                                   ",
"                                                   ",
"                                                   ",
"                                                   ",
"                                                   ",
"                                                   ",
"                                                   ",
"                                                   ",
"                                                   ",
"                                                   ",
"                                                   ",
"                                                   ",
"                                                   ",
"                                                   ",
"               ...................                 ",
"               ...................                 ",
"               ...................                 ",
"               ..................+                 ",
"               ..................@                 ",
"                          #......$                 ",
"                          %.....&                  ",
"                         *......=                  ",
"                         -.....;>                  ",
"                        ,'.....)                   ",
"                        !.....~{                   ",
"                       ]^...../                    ",
"                       (....._:                    ",
"                      <[.....}                     ",
"                      |......1                     ",
"                      2.....3                      ",
"                     4......5                      ",
"                     6.....78                      ",
"                    90.....a                       ",
"                    b.....cd                       ",
"                   ef.....g                        ",
"                   h....._i                        ",
"                  <j.....k                         ",
"                  l......m                         ",
"                  n.....o                          ",
"                 p......q                          ",
"                                                   ",
"                                                   ",
"                                                   ",
"                                                   ",
"                                                   ",
"                                                   ",
"                                                   ",
"                                                   ",
"                                                   ",
"                                                   ",
"                                                   ",
"                                                   ",
"                                                   ",
"                                                   ",
"                                                   "};
