/* XPM */
static char * 8_xpm[] = {
"51 57 96 2",
"  	c #F5FF88",
". 	c #ECF683",
"+ 	c #A2A95A",
"@ 	c #5B5F33",
"# 	c #2E301A",
"$ 	c #14150B",
"% 	c #070704",
"& 	c #060603",
"* 	c #13140B",
"= 	c #2D2F19",
"- 	c #5A5E32",
"; 	c #A0A759",
"> 	c #EBF583",
", 	c #9FA659",
"' 	c #16170C",
") 	c #000000",
"! 	c #15160C",
"~ 	c #9EA457",
"{ 	c #858A4A",
"] 	c #C7CF6E",
"^ 	c #030302",
"/ 	c #5E6234",
"( 	c #090905",
"_ 	c #8E944F",
": 	c #DEE77B",
"< 	c #E1EA7D",
"[ 	c #929851",
"} 	c #0A0A05",
"| 	c #5F6335",
"1 	c #202112",
"2 	c #828748",
"3 	c #848949",
"4 	c #212212",
"5 	c #080804",
"6 	c #D5DE76",
"7 	c #EDF784",
"8 	c #282A16",
"9 	c #D4DD76",
"0 	c #2A2C17",
"a 	c #6F743E",
"b 	c #838849",
"c 	c #71763F",
"d 	c #DCE57A",
"e 	c #0E0F08",
"f 	c #909650",
"g 	c #DFE87C",
"h 	c #101109",
"i 	c #B7BE65",
"j 	c #0F1009",
"k 	c #B9C167",
"l 	c #D9E279",
"m 	c #5C6033",
"n 	c #010101",
"o 	c #5D6134",
"p 	c #DAE379",
"q 	c #E6EF7F",
"r 	c #787D43",
"s 	c #1A1B0E",
"t 	c #C6CE6E",
"u 	c #54572E",
"v 	c #BFC76A",
"w 	c #E4ED7E",
"x 	c #C1C96B",
"y 	c #56592F",
"z 	c #6E723D",
"A 	c #6C703C",
"B 	c #6E733D",
"C 	c #242514",
"D 	c #D6DF77",
"E 	c #252614",
"F 	c #F1FB86",
"G 	c #F0FA85",
"H 	c #0D0E07",
"I 	c #D7E077",
"J 	c #2C2E19",
"K 	c #757A41",
"L 	c #575B31",
"M 	c #C0C86B",
"N 	c #E5EE7F",
"O 	c #E7F080",
"P 	c #C3CB6C",
"Q 	c #585C31",
"R 	c #B2B963",
"S 	c #B1B862",
"T 	c #CAD270",
"U 	c #3E4123",
"V 	c #3C3E21",
"W 	c #C8D06F",
"X 	c #CBD371",
"Y 	c #7E8346",
"Z 	c #4B4E2A",
"` 	c #050503",
" .	c #232413",
"..	c #4A4D29",
"+.	c #7B8044",
"@.	c #C9D16F",
"                                                                                                      ",
"                                                                                                      ",
"                                                                                                      ",
"                                                                                                      ",
"                                                                                                      ",
"                                                                                                      ",
"                                                                                                      ",
"                                                                                                      ",
"                                                                                                      ",
"                                                                                                      ",
"                                                                                                      ",
"                                                                                                      ",
"                                                                                                      ",
"                                                                                                      ",
"                                                                                                      ",
"                                                                                                      ",
"                                      . + @ # $ % & * = - ; >                                         ",
"                                    , ' ) ) ) ) ) ) ) ) ) ) ! ~                                       ",
"                                  { ) ) ) ) ) ) ) ) ) ) ) ) ) ) {                                     ",
"                                ] ^ ) ) ) ) ) ) ) ) ) ) ) ) ) ) ^ ]                                   ",
"                                / ) ) ) ) ) ( _ : < [ } ) ) ) ) ) |                                   ",
"                                1 ) ) ) ) ) 2         3 ) ) ) ) ) 4                                   ",
"                                5 ) ) ) ) ) 6         6 ) ) ) ) ) (                                   ",
"                                5 ) ) ) ) ) 7         7 ) ) ) ) ) (                                   ",
"                                8 ) ) ) ) ) 6         9 ) ) ) ) ) 0                                   ",
"                                a ) ) ) ) ) b         2 ) ) ) ) ) c                                   ",
"                                d e ) ) ) ) } f g < [ } ) ) ) ) h g                                   ",
"                                  i e ) ) ) ) ) ) ) ) ) ) ) ) j k                                     ",
"                                    l m n ) ) ) ) ) ) ) ) n o p                                       ",
"                                  q r s ) ) ) ) ) ) ) ) ) ) s r q                                     ",
"                                t s ) ) ) ) ) ) ) ) ) ) ) ) ) ) s t                                   ",
"                              : $ ) ) ) ) ) u v w q x y ) ) ) ) ) $ g                                 ",
"                              z ) ) ) ) ) A             A ) ) ) ) ) B                                 ",
"                              C ) ) ) ) ) D             6 ) ) ) ) ) E                                 ",
"                              & ) ) ) ) ) F             G ) ) ) ) ) %                                 ",
"                              H ) ) ) ) ) I             6 ) ) ) ) ) j                                 ",
"                              J ) ) ) ) ) B             z ) ) ) ) ) =                                 ",
"                              K ) ) ) ) ) ) L M N O P Q ) ) ) ) ) ) K                                 ",
"                              g h ) ) ) ) ) ) ) ) ) ) ) ) ) ) ) ) h g                                 ",
"                                R } ) ) ) ) ) ) ) ) ) ) ) ) ) ) } S                                   ",
"                                  T U ) ) ) ) ) ) ) ) ) ) ) ) V W                                     ",
"                                      X Y Z C h ` ` j  ...+.@.                                        ",
"                                                                                                      ",
"                                                                                                      ",
"                                                                                                      ",
"                                                                                                      ",
"                                                                                                      ",
"                                                                                                      ",
"                                                                                                      ",
"                                                                                                      ",
"                                                                                                      ",
"                                                                                                      ",
"                                                                                                      ",
"                                                                                                      ",
"                                                                                                      ",
"                                                                                                      ",
"                                                                                                      "};
