/* XPM */
static char * 9_xpm[] = {
"51 57 91 1",
" 	c #F5FF88",
".	c #F4FE87",
"+	c #B0B762",
"@	c #676B39",
"#	c #2E301A",
"$	c #15160C",
"%	c #050503",
"&	c #11120A",
"*	c #272916",
"=	c #565A30",
"-	c #A1A85A",
";	c #EDF784",
">	c #BCC469",
",	c #292B17",
"'	c #000000",
")	c #1F2011",
"!	c #A8AF5D",
"~	c #939952",
"{	c #040402",
"]	c #848949",
"^	c #ABB25F",
"/	c #020201",
"(	c #ECF683",
"_	c #1A1B0E",
":	c #636737",
"<	c #D2DB75",
"[	c #EFF985",
"}	c #616536",
"|	c #0C0D07",
"1	c #D9E279",
"2	c #929851",
"3	c #52552D",
"4	c #4E512B",
"5	c #5E6234",
"6	c #494C29",
"7	c #B8BF66",
"8	c #B6BD65",
"9	c #0B0B06",
"0	c #E9F281",
"a	c #1C1D0F",
"b	c #E6EF7F",
"c	c #E5EE7F",
"d	c #9FA558",
"e	c #080804",
"f	c #F2FC86",
"g	c #F1FB86",
"h	c #6C703C",
"i	c #0C0C06",
"j	c #3B3D21",
"k	c #252614",
"l	c #B8C066",
"m	c #B7BE65",
"n	c #202112",
"o	c #54572E",
"p	c #50532C",
"q	c #BDC569",
"r	c #656938",
"s	c #D4DD76",
"t	c #F0FA85",
"u	c #0D0E07",
"v	c #EAF482",
"w	c #34361D",
"x	c #1E1F11",
"y	c #434625",
"z	c #31331B",
"A	c #747941",
"B	c #36381E",
"C	c #14150B",
"D	c #BEC66A",
"E	c #CED672",
"F	c #606435",
"G	c #969C53",
"H	c #979D54",
"I	c #424525",
"J	c #030302",
"K	c #4D502B",
"L	c #C8D06F",
"M	c #17180D",
"N	c #010101",
"O	c #242514",
"P	c #6A6E3B",
"Q	c #CCD471",
"R	c #E8F181",
"S	c #E7F080",
"T	c #090905",
"U	c #444726",
"V	c #919751",
"W	c #2B2D18",
"X	c #5A5E32",
"Y	c #A3AA5B",
"Z	c #E9F382",
"                                                   ",
"                                                   ",
"                                                   ",
"                                                   ",
"                                                   ",
"                                                   ",
"                                                   ",
"                                                   ",
"                                                   ",
"                                                   ",
"                                                   ",
"                                                   ",
"                                                   ",
"                                                   ",
"                                                   ",
"                                                   ",
"                    .+@#$%&*=-;                    ",
"                   >,''''''''')!                   ",
"                  ~{'''''''''''']                  ",
"                 ^/''''''''''''''~                 ",
"                (_''''':<[<}'''''|1                ",
"                2'''''3     4'''''5                ",
"                6'''''7     8'''''90               ",
"                a'''''b     c''''''d               ",
"                e'''''f     g''''''h               ",
"                i'''''b     c''''''j               ",
"                k'''''l     m''''''n               ",
"                }'''''o     p''''''&               ",
"                q''''''rsts:'''''''{               ",
"                 o'''''''''''''''''u               ",
"                 vw''''''''''''''''x               ",
"                  (:/''''''''y'''''z               ",
"                    <ABC{|,:DE'''''F               ",
"                             G'''''H               ",
"                             I''''J1               ",
"                            m'''''K                ",
"                           LM''''N>                ",
"                  OP-QRfSDhT'''''P                 ",
"                  ''''''''''''''B;                 ",
"                  '''''''''''''Uv                  ",
"                  '''''''''''$Vf                   ",
"                  ''''''J$WXYZ                     ",
"                                                   ",
"                                                   ",
"                                                   ",
"                                                   ",
"                                                   ",
"                                                   ",
"                                                   ",
"                                                   ",
"                                                   ",
"                                                   ",
"                                                   ",
"                                                   ",
"                                                   ",
"                                                   ",
"                                                   "};
