/* XPM */
static char * awards_xpm[] = {
"138 41 154 2",
"  	c #F9FF9D",
". 	c #F8FE9C",
"+ 	c #1E1F13",
"@ 	c #000000",
"# 	c #1F2014",
"$ 	c #BEC378",
"% 	c #BFC479",
"& 	c #676941",
"* 	c #686A41",
"= 	c #F5FB9B",
"- 	c #14140C",
"; 	c #030302",
"> 	c #B0B46F",
", 	c #64663F",
"' 	c #B1B56F",
") 	c #222316",
"! 	c #060604",
"~ 	c #F2F899",
"{ 	c #EDF396",
"] 	c #010101",
"^ 	c #232416",
"/ 	c #9B9F62",
"( 	c #020201",
"_ 	c #0E0E09",
": 	c #30311E",
"< 	c #76794B",
"[ 	c #E5EB91",
"} 	c #EFF597",
"| 	c #6A6D43",
"1 	c #15150D",
"2 	c #848753",
"3 	c #070704",
"4 	c #252617",
"5 	c #8A8D57",
"6 	c #B9BD74",
"7 	c #535534",
"8 	c #080805",
"9 	c #040402",
"0 	c #17180F",
"a 	c #414329",
"b 	c #7F8250",
"c 	c #CFD483",
"d 	c #585A37",
"e 	c #E3E88F",
"f 	c #696C42",
"g 	c #C0C579",
"h 	c #C1C67A",
"i 	c #5D5F3A",
"j 	c #1A1B11",
"k 	c #DEE38C",
"l 	c #525434",
"m 	c #565836",
"n 	c #95995E",
"o 	c #EEF496",
"p 	c #0B0B07",
"q 	c #404229",
"r 	c #3F4128",
"s 	c #898C56",
"t 	c #93975D",
"u 	c #94985E",
"v 	c #888B56",
"w 	c #B2B670",
"x 	c #4C4E30",
"y 	c #8D9059",
"z 	c #D9DE89",
"A 	c #E6EC91",
"B 	c #818451",
"C 	c #62643E",
"D 	c #212215",
"E 	c #C7CC7E",
"F 	c #F7FD9C",
"G 	c #A7AB69",
"H 	c #31321F",
"I 	c #1D1E12",
"J 	c #E4E98F",
"K 	c #CBD080",
"L 	c #8B8E57",
"M 	c #A1A566",
"N 	c #868954",
"O 	c #858854",
"P 	c #A2A666",
"Q 	c #505232",
"R 	c #11110A",
"S 	c #4F5132",
"T 	c #F0F697",
"U 	c #F6FC9B",
"V 	c #ADB16D",
"W 	c #45472C",
"X 	c #B4B871",
"Y 	c #12120B",
"Z 	c #484A2E",
"` 	c #CCD181",
" .	c #494B2E",
"..	c #44462B",
"+.	c #18190F",
"@.	c #393A24",
"#.	c #3A3B24",
"$.	c #5A5C39",
"%.	c #242517",
"&.	c #0A0A06",
"*.	c #050503",
"=.	c #EAF094",
"-.	c #13130C",
";.	c #E9EF93",
">.	c #333420",
",.	c #797C4C",
"'.	c #AAAE6B",
").	c #8C8F58",
"!.	c #10100A",
"~.	c #A5A968",
"{.	c #C5CA7C",
"].	c #4A4C2F",
"^.	c #92965C",
"/.	c #D3D885",
"(.	c #515333",
"_.	c #D4D986",
":.	c #282919",
"<.	c #90935B",
"[.	c #A6AA69",
"}.	c #6C6F44",
"|.	c #0D0D08",
"1.	c #43452A",
"2.	c #3B3C25",
"3.	c #202114",
"4.	c #D0D583",
"5.	c #B5B972",
"6.	c #DFE48C",
"7.	c #090906",
"8.	c #DBE08A",
"9.	c #DADF89",
"0.	c #D7DC87",
"a.	c #DCE18B",
"b.	c #383923",
"c.	c #D2D784",
"d.	c #F1F798",
"e.	c #9DA163",
"f.	c #838653",
"g.	c #363722",
"h.	c #AEB26E",
"i.	c #AFB36E",
"j.	c #5C5E3A",
"k.	c #63653E",
"l.	c #9FA364",
"m.	c #2B2C1B",
"n.	c #8F925A",
"o.	c #2C2D1C",
"p.	c #91945B",
"q.	c #7A7D4D",
"r.	c #F4FA9A",
"s.	c #828552",
"t.	c #CDD281",
"u.	c #7B7E4E",
"v.	c #3E3F27",
"w.	c #15160E",
"                                                                                                                                                                                                                                                                                    ",
"                                                                                                                                                                                                                                                                                    ",
"                                                                                                                                                                                                                                                                                    ",
"                                                                                                                                                                                                                                                                                    ",
"                                                                                                                                                                                                                                                                                    ",
"                                                                                                                                                                                                                                                                                    ",
"                                                                                                                                                                                                                                                                                    ",
"                                                                                                                                                                                                                                                                                    ",
"                                                                                                                                                                                                                                                                                    ",
"                                                                                                                                                                                                                                                                                    ",
"                                                                                                                                                                                                                                                                                    ",
"                                                                                                                                                                                                                                                                                    ",
"                                                                                                                                                                                                                                                                                    ",
"                                                                                                                                                                                                                                                                                    ",
"                                                                  . + @ @ @ # .                                                                                                               @ @ @ @                                                                               ",
"                                                                  $ @ @ @ @ @ %                                                                                                               @ @ @ @                                                                               ",
"                                                                  & @ @ @ @ @ *                                                                                                               @ @ @ @                                                                               ",
"                                                                = - @ @ ; @ @ - =                                                                                                             @ @ @ @                                                                               ",
"                                                                > @ @ @ , @ @ @ '         ) @ @ ! ~   { ] @ ] {   ~ ! @ @ ^     / @ @ @ ( _ : < [           @ @ @ @ } | 1 ;     = 2 ^ 3 4 5 . @ @ @ @       6 7 # 8 9 0 a b c                                                       ",
"                                                                d @ @ ! e ! @ @ d         f @ @ @ g   g @ @ @ h   % @ @ @ |     i @ @ @ @ @ @ @ j k         @ @ @ @ l @ @ @     m @ @ @ @ @ , @ @ @ @     n @ @ @ @ @ @ @ @ @                                                       ",
"                                                              o p @ @ q   r @ @ p }       ' @ @ @ s   t @ @ @ u   v @ @ @ w     x y z = A B @ @ @ C         @ @ @ @ D E F     G @ @ @ H k k H @ @ @ @     I @ @ @ < J } K L H                                                       ",
"                                                              M @ @ @ N   O @ @ @ P       } 3 @ @ Q   & @ R @ *   S @ @ 8 T               U @ @ @ I         @ @ @ @ V         W @ @ @ X     X @ @ @ @     ! @ @ Y                                                                   ",
"                                                              Z @ @ @ `   K @ @ @  .        ..@ @ +.  @.@ s @ #.  0 @ @ W       h $.%.&.] @ @ @ @ *.        @ @ @ @ =.        -.@ @ @ ;.    ;.@ @ @ @     >.@ @ @ Z ,.'.[                                                           ",
"                                                            A *.@ @ +.    . 0 @ @ *.A       ).@ @ @ z _ !.~ !._ z @ @ @ y     ~.( @ @ @ @ @ @ @ @ @         @ @ @ @           ; @ @ @ F     U @ @ @ @     {.0 @ @ @ @ @ ; ].k                                                       ",
"                                                            ^.@ @ @ @ @ @ @ @ @ @ @ ^.      /.@ @ @ B @ (.  Q @ B @ @ @ _.    :.@ @ @ <.~ F @ @ @ @         @ @ @ @           -.@ @ @ =.    ;.@ @ @ @       } [.}.W |.@ @ @ 1.                                                      ",
"                                                            #.@ @ @ @ @ @ @ @ @ @ @ 2.        3.@ @ + @ n   u @ + @ @ 3.      *.@ @ @ T   4.@ @ @ @         @ @ @ @           W @ @ @ 5.    5.@ @ @ @               6.@ @ @ 7.                                                      ",
"                                                          8.] @ @ ] 9.      0.@ @ @ ] a.      & @ @ @ @ 8.  9.@ @ @ @ *       + @ @ @ M ;.Z @ @ @ @         @ @ @ @           [.@ @ @ >.6.6.>.@ @ @ @     b.n c.d.T e.@ @ @ )                                                       ",
"                                                          f.@ @ @ @.          g.@ @ @ 2       h.@ @ @ 4       %.@ @ @ i.      y @ @ @ @ @ j.@ @ @ @         @ @ @ @             7 @ @ @ @ @ k.@ @ @ @     @ @ @ @ @ @ @ @ ( l.                                                      ",
"                                                          m.@ @ @ <.          n.@ @ @ o.      o ! @ @ f       f @ @ 3 o         p.^ *.+ q.= @ @ @ @         @ @ @ @             r.s.D ! ^ v F @ @ @ @     t.u.v.w.; 3 # m %                                                         ",
"                                                                                                                                                                                                                                                                                    ",
"                                                                                                                                                                                                                                                                                    ",
"                                                                                                                                                                                                                                                                                    ",
"                                                                                                                                                                                                                                                                                    ",
"                                                                                                                                                                                                                                                                                    ",
"                                                                                                                                                                                                                                                                                    ",
"                                                                                                                                                                                                                                                                                    ",
"                                                                                                                                                                                                                                                                                    ",
"                                                                                                                                                                                                                                                                                    ",
"                                                                                                                                                                                                                                                                                    ",
"                                                                                                                                                                                                                                                                                    ",
"                                                                                                                                                                                                                                                                                    "};
