/* XPM */
static char * berry_xpm[] = {
"18 18 211 2",
"  	c None",
". 	c #FFFDFE",
"+ 	c #FEFDFD",
"@ 	c #FCFBFA",
"# 	c #FDFCFB",
"$ 	c #FFFFFF",
"% 	c #F3F5EA",
"& 	c #CCD6AB",
"* 	c #D7E1C2",
"= 	c #FBFCFA",
"- 	c #CDDCB9",
"; 	c #A7C281",
"> 	c #EDF4E3",
", 	c #EFF4E5",
"' 	c #EEF3E4",
") 	c #ECF1E1",
"! 	c #F2F6E9",
"~ 	c #FCFDFA",
"{ 	c #FDFEFC",
"] 	c #D3E0C1",
"^ 	c #88AD53",
"/ 	c #8DB551",
"( 	c #91B352",
"_ 	c #8DAC4C",
": 	c #83A640",
"< 	c #A6C06C",
"[ 	c #E8E7CF",
"} 	c #FEFBFA",
"| 	c #FCFDFB",
"1 	c #EAF0E0",
"2 	c #D6E3C4",
"3 	c #A4BF7C",
"4 	c #669324",
"5 	c #659321",
"6 	c #6B9626",
"7 	c #6F9C2A",
"8 	c #70A02B",
"9 	c #82A438",
"0 	c #C3B27D",
"a 	c #F4D6CD",
"b 	c #FFF8F8",
"c 	c #FEFEFD",
"d 	c #E6EFDA",
"e 	c #A2BF75",
"f 	c #7CA53F",
"g 	c #6A972B",
"h 	c #5E8C1F",
"i 	c #59881A",
"j 	c #608D21",
"k 	c #73A034",
"l 	c #7EA939",
"m 	c #769D2E",
"n 	c #7D8E2E",
"o 	c #CA8F6C",
"p 	c #F9DAD6",
"q 	c #FFFCFC",
"r 	c #D7DFBD",
"s 	c #90A347",
"t 	c #7FA839",
"u 	c #79A439",
"v 	c #65902C",
"w 	c #5A7A1B",
"x 	c #7C7C2B",
"y 	c #978D42",
"z 	c #91903C",
"A 	c #8F7F33",
"B 	c #7E7425",
"C 	c #A56C3B",
"D 	c #ECA39D",
"E 	c #FEF3F3",
"F 	c #EDD1C6",
"G 	c #97883D",
"H 	c #7FA53C",
"I 	c #88A643",
"J 	c #888335",
"K 	c #945B2E",
"L 	c #C24D3F",
"M 	c #D34C46",
"N 	c #C64B3A",
"O 	c #CB3C36",
"P 	c #C64338",
"Q 	c #C44D3F",
"R 	c #EB7375",
"S 	c #FDEAEB",
"T 	c #FEF6F6",
"U 	c #E7A097",
"V 	c #90752D",
"W 	c #72922C",
"X 	c #8C6C29",
"Y 	c #B93D2A",
"Z 	c #DE373E",
"` 	c #EA3242",
" .	c #EB2F42",
"..	c #EB3448",
"+.	c #EA3748",
"@.	c #EA4053",
"#.	c #E94153",
"$.	c #F05C68",
"%.	c #FCE2E3",
"&.	c #FFFEFE",
"*.	c #FEF5F5",
"=.	c #EA918F",
"-.	c #AA4F2A",
";.	c #805A19",
">.	c #B12719",
",.	c #DE1D2A",
"'.	c #E92A39",
").	c #E42433",
"!.	c #E42839",
"~.	c #E93449",
"{.	c #E93B50",
"].	c #E83C51",
"^.	c #E93D4F",
"/.	c #EE5763",
"(.	c #FCDEDF",
"_.	c #FEF8F8",
":.	c #F1ABAC",
"<.	c #D03938",
"[.	c #B42B22",
"}.	c #D31521",
"|.	c #E2212F",
"1.	c #E22633",
"2.	c #DF2330",
"3.	c #E73242",
"4.	c #E52E41",
"5.	c #E6354A",
"6.	c #E83F54",
"7.	c #EF6770",
"8.	c #FCE6E7",
"9.	c #FFFDFD",
"0.	c #F6CFD0",
"a.	c #DA4247",
"b.	c #D32831",
"c.	c #D51C28",
"d.	c #DC2635",
"e.	c #DE2737",
"f.	c #E02938",
"g.	c #E42D3F",
"h.	c #E22C3C",
"i.	c #E53446",
"j.	c #E43649",
"k.	c #EA4B5D",
"l.	c #F07378",
"m.	c #FBEDED",
"n.	c #E38485",
"o.	c #D23036",
"p.	c #D42A34",
"q.	c #D42734",
"r.	c #D6232F",
"s.	c #DC2734",
"t.	c #DA212E",
"u.	c #DE2534",
"v.	c #E23245",
"w.	c #E23749",
"x.	c #E74455",
"y.	c #F07D85",
"z.	c #FDEDED",
"A.	c #FEFBFB",
"B.	c #F0C9C8",
"C.	c #CD4C4C",
"D.	c #CE2F35",
"E.	c #CE252F",
"F.	c #D62734",
"G.	c #DB2834",
"H.	c #DA262F",
"I.	c #DF313E",
"J.	c #DE3243",
"K.	c #E03345",
"L.	c #E5404F",
"M.	c #F28F97",
"N.	c #FDF1F1",
"O.	c #FCF5F4",
"P.	c #E5ADAC",
"Q.	c #C63838",
"R.	c #C52427",
"S.	c #C71B21",
"T.	c #D42633",
"U.	c #D92B39",
"V.	c #D42531",
"W.	c #DA2B3A",
"X.	c #E34354",
"Y.	c #E95261",
"Z.	c #F7B0B4",
"`.	c #FEF6F7",
" +	c #F9EFEE",
".+	c #E1A4A2",
"++	c #C94746",
"@+	c #C7292D",
"#+	c #CA242B",
"$+	c #D0242F",
"%+	c #D72E3A",
"&+	c #DB323D",
"*+	c #E23F4C",
"=+	c #F1949B",
"-+	c #FCE9EA",
";+	c #ECC2C1",
">+	c #D16564",
",+	c #C82C2F",
"'+	c #CB2328",
")+	c #D12830",
"!+	c #DE434D",
"~+	c #ED8387",
"{+	c #FBE0DF",
"]+	c #FFFEFD",
"^+	c #FEFDFC",
"/+	c #FBF2F2",
"(+	c #F2CDCC",
"_+	c #E9A8A8",
":+	c #EBAFAF",
"<+	c #F6D6D6",
"[+	c #FDF4F4",
". . . . + @ # . . . . . . . . . . . ",
". $ $ $ % & * $ $ $ $ $ $ $ $ $ $ . ",
". $ $ $ = - ; > , ' ) ! ~ $ $ $ $ . ",
". $ $ $ { ] ^ / ( _ : < [ } $ $ $ . ",
". $ | 1 2 3 4 5 6 7 8 9 0 a b $ $ . ",
". c d e f g h i j k l m n o p q $ . ",
". ~ r s t u v w x y z A B C D E $ . ",
". q F G H I J K L M N O P Q R S $ . ",
". T U V W X Y Z `  ...+.@.#.$.%.&.. ",
". *.=.-.;.>.,.'.).!.~.{.].^./.(.&.. ",
". _.:.<.[.}.|.1.2.3.4.5.6.#.7.8.$ . ",
". 9.0.a.b.c.d.e.f.g.h.i.j.k.l.S $ . ",
". $ m.n.o.p.q.r.s.t.u.v.w.x.y.z.$ . ",
". $ A.B.C.D.E.F.G.H.I.J.K.L.M.N.$ . ",
". $ $ O.P.Q.R.S.T.U.V.W.X.Y.Z.`.$ . ",
". $ $ $  +.+++@+#+$+%+&+*+=+-+&.$ . ",
". $ $ $ &.O.;+>+,+'+)+!+~+{+]+$ $ . ",
"&.$ $ $ $ $ ^+/+(+_+:+<+[+&.$ $ $ &."};
