/* XPM */
static char * scoring_xpm[] = {
"138 41 140 2",
"  	c #F9FF9D",
". 	c #020202",
"+ 	c #040403",
"@ 	c #0E0E09",
"# 	c #252618",
"$ 	c #515334",
"% 	c #A2A666",
"& 	c #F6FC9B",
"* 	c #3C3E26",
"= 	c #EDF396",
"- 	c #76794B",
"; 	c #DFE48D",
"> 	c #585A38",
", 	c #242517",
"' 	c #E8ED92",
") 	c #080806",
"! 	c #14150E",
"~ 	c #F8FE9C",
"{ 	c #AEB36E",
"] 	c #555736",
"^ 	c #202115",
"/ 	c #0B0B07",
"( 	c #0A0A07",
"_ 	c #535535",
": 	c #ACB16D",
"< 	c #C0C479",
"[ 	c #17180F",
"} 	c #070705",
"| 	c #1F2014",
"1 	c #6B6D44",
"2 	c #E7EC91",
"3 	c #DBE08A",
"4 	c #727549",
"5 	c #333521",
"6 	c #12120C",
"7 	c #050504",
"8 	c #505233",
"9 	c #8B8E58",
"0 	c #D3D885",
"a 	c #E0E58D",
"b 	c #5B5D3A",
"c 	c #4E4F31",
"d 	c #44452B",
"e 	c #ECF295",
"f 	c #838653",
"g 	c #030303",
"h 	c #28291A",
"i 	c #C4C87C",
"j 	c #0F0F0A",
"k 	c #CDD282",
"l 	c #3A3C25",
"m 	c #3B3D26",
"n 	c #7D804F",
"o 	c #595B39",
"p 	c #EAF094",
"q 	c #9B9F62",
"r 	c #9FA364",
"s 	c #EBF194",
"t 	c #A1A566",
"u 	c #9CA063",
"v 	c #090906",
"w 	c #979B60",
"x 	c #E2E78E",
"y 	c #30311F",
"z 	c #B4B972",
"A 	c #F4FA9A",
"B 	c #F5FB9B",
"C 	c #E3E88F",
"D 	c #B9BE75",
"E 	c #7C7F4F",
"F 	c #2C2D1C",
"G 	c #2B2C1C",
"H 	c #43442B",
"I 	c #93975D",
"J 	c #92965D",
"K 	c #45462C",
"L 	c #828552",
"M 	c #D6DB87",
"N 	c #0D0D09",
"O 	c #6D6F45",
"P 	c #B5BA72",
"Q 	c #F3F999",
"R 	c #B7BC74",
"S 	c #292A1A",
"T 	c #15160E",
"U 	c #16170F",
"V 	c #D9DE89",
"W 	c #F2F899",
"X 	c #5D5F3B",
"Y 	c #060604",
"Z 	c #30321F",
"` 	c #777A4C",
" .	c #DDE28B",
"..	c #CACE7F",
"+.	c #E9EE93",
"@.	c #494A2E",
"#.	c #C5C97C",
"$.	c #DADF8A",
"%.	c #D1D684",
"&.	c #8D9059",
"*.	c #5F613C",
"=.	c #3E4028",
"-.	c #1E1F14",
";.	c #41422A",
">.	c #C9CD7F",
",.	c #11110B",
"'.	c #94985E",
").	c #D8DD88",
"!.	c #C7CB7D",
"~.	c #EEF496",
"{.	c #9A9E61",
"].	c #10100B",
"^.	c #A3A767",
"/.	c #2E2F1D",
"(.	c #999D61",
"_.	c #787B4C",
":.	c #B1B670",
"<.	c #EFF597",
"[.	c #A5A968",
"}.	c #383A24",
"|.	c #393B25",
"1.	c #7B7E4E",
"2.	c #48492E",
"3.	c #797C4D",
"4.	c #E6EB91",
"5.	c #404229",
"6.	c #262718",
"7.	c #323420",
"8.	c #6C6E44",
"9.	c #CBCF80",
"0.	c #F7FD9C",
"a.	c #ACB06C",
"b.	c #525434",
"c.	c #ABAF6C",
"d.	c #D4D986",
"e.	c #8E925A",
"f.	c #565837",
"g.	c #1C1D12",
"h.	c #E8EE92",
"i.	c #EAF093",
"                                                                                                                                                                                                                                                                                    ",
"                                                                                                                                                                                                                                                                                    ",
"                                                                                                                                                                                                                                                                                    ",
"                                                                                                                                                                                                                                                                                    ",
"                                                                                                                                                                                                                                                                                    ",
"                                                                                                                                                                                                                                                                                    ",
"                                                                                                                                                                                                                                                                                    ",
"                                                                                                                                                                                                                                                                                    ",
"                                                                                                                                                                                                                                                                                    ",
"                                                                                                                                                                                                                                                                                    ",
"                                                                                                                                                                                                                                                                                    ",
"                                                                                                                                                                                                                                                                                    ",
"                                                                                                                                                                                                                                                                                    ",
"                                                          . . . . . . + @ # $ % &                                                                                                                                                                                                   ",
"                                                          . . . . . . . . . . . * =                                                                                                                                                                                                 ",
"                                                          . . . . . . . . . . . . -                                                                                                                                                                                                 ",
"                                                          . . . .       ; > . . . ,                                                                                                                                                                                                 ",
"                                                          . . . .         ' . . . )                                                                                                                                                                                                 ",
"                                                          . . . .         ' . . . !               ~ { ] ^ / ( ^ _ : ~             . . . .   < _ [ } | 1 2             . . . .           . . . .           3 4 5 6 7 / # 8 9 0                                                       ",
"                                                          . . . .       a b . . . c             2 d . . . . . . . . d 2 e         . . . . f g . . . . . h e           . . . .           . . . .         i j . . . . . . . . .                                                       ",
"                                                          . . . . . . . . . . . @ k           & l . . . . . . . . . . m &         . . . . . . . . . . . . n           . . . g           . . . .         m . . . . . . . . . .                                                       ",
"                                                          . . . . . . . . . . . o p           q . . . @ r s = t @ . . . u         . . . . v w e x 8 . . . y           . . . 7           . . . .         ( . . . z A B C D E F                                                       ",
"                                                          . . . . . . . . . . . . G s         H . . . I         J . . . K         . . . . L       M . . . N           . . . 7           . . . .         6 . . . O P 0 Q                                                             ",
"                                                          . . . .       = R S . . . -         T . . . x         x . . . U         . . . . V       W . . . .           . . . 7           . . . .         X . . . . . . Y Z `  .                                                      ",
"                                                          . . . .           ... . . #         Y . . . &         B . . . }         . . . . &       ~ . . . .           . . . 7         B . . . .         +.@.. . . . . . . . @ #.                                                    ",
"                                                          . . . .           A . . . }         T . . . C         x . . . U         . . . .           . . . .           . . . . &       $.. . . .             %.&.*.=.-.. . . . ;.                                                    ",
"                                                          . . . .           >.. . . ,.        H . . . '.        I . . . K         . . . .           . . . .           N . . . ).      f . . . .                       !.. . . @                                                     ",
"                                                          . . . .       ~.R S . . . =.        {.. . . ].t = = ^.].. . . q         . . . .           . . . .           /.. . . $ C = (.v . . . .         G _.:.).<.~ ' J . . . N                                                     ",
"                                                          . . . . . . . . . . . . . [.        B }.. . . . . . . . . . |.&         . . . .           . . . .           1.. . . . . . . . . . . .         . . . . . . . . . . . 2.                                                    ",
"                                                          . . . . . . . . . . . g 3.            4.;.. . . . . . . . 5.4.          . . . .           . . . .           p 6.. . . . . g f . . . .         . . . . . . . . . . | M                                                     ",
"                                                          . . . . . . . Y 6 7.8.9.                0.a._ | ( ( -.b.c.0.            . . . .           . . . .             4.1 | } U b.<   . . . .         d.e.f.F ,.7 v g.K &.e                                                       ",
"                                                                                                                                                                                                                                                                                    ",
"                                                                                                                                                                                                                                                                                    ",
"                                                                                                                                                                                                        h.i.                                                                        ",
"                                                                                                                                                                                                                                                                                    ",
"                                                                                                                                                                                                                                                                                    ",
"                                                                                                                                                                                                                                                                                    ",
"                                                                                                                                                                                                                                                                                    ",
"                                                                                                                                                                                                                                                                                    ",
"                                                                                                                                                                                                                                                                                    ",
"                                                                                                                                                                                                                                                                                    "};
