/* XPM */
static char * controls_xpm[] = {
"138 41 151 2",
"  	c #F9FF9D",
". 	c #E1E68E",
"+ 	c #C6CB7D",
"@ 	c #D8DD88",
"# 	c #E2E78E",
"$ 	c #848753",
"% 	c #484A2E",
"& 	c #2D2E1C",
"* 	c #2F301E",
"= 	c #4E5031",
"- 	c #8E9159",
"; 	c #E5EB91",
"> 	c #F7FD9C",
", 	c #EDF396",
"' 	c #EEF496",
") 	c #808351",
"! 	c #000000",
"~ 	c #555736",
"{ 	c #93975D",
"] 	c #0A0A06",
"^ 	c #0B0B07",
"/ 	c #94985E",
"( 	c #17180F",
"_ 	c #030302",
": 	c #E9EF93",
"< 	c #DADF89",
"[ 	c #070704",
"} 	c #14140C",
"| 	c #ABAF6C",
"1 	c #F6FC9B",
"2 	c #9EA264",
"3 	c #242517",
"4 	c #F4FA9A",
"5 	c #D5DA86",
"6 	c #CED382",
"7 	c #E8EE93",
"8 	c #D4D986",
"9 	c #D6DB87",
"0 	c #F5FB9B",
"a 	c #D0D583",
"b 	c #D7DC87",
"c 	c #F2F899",
"d 	c #D2D784",
"e 	c #CACF7F",
"f 	c #DBE08A",
"g 	c #6E7146",
"h 	c #010101",
"i 	c #C1C67A",
"j 	c #F1F798",
"k 	c #E7ED92",
"l 	c #64663F",
"m 	c #0C0C07",
"n 	c #393A24",
"o 	c #BFC479",
"p 	c #888B56",
"q 	c #0F0F09",
"r 	c #60623C",
"s 	c #B7BB73",
"t 	c #202114",
"u 	c #292A1A",
"v 	c #D3D885",
"w 	c #46482C",
"x 	c #CDD281",
"y 	c #B6BA73",
"z 	c #18190F",
"A 	c #2E2F1D",
"B 	c #595B38",
"C 	c #060604",
"D 	c #090906",
"E 	c #3A3B24",
"F 	c #272819",
"G 	c #42442A",
"H 	c #EAF094",
"I 	c #050503",
"J 	c #B2B670",
"K 	c #262718",
"L 	c #32331F",
"M 	c #515333",
"N 	c #7F8250",
"O 	c #686B42",
"P 	c #8A8D57",
"Q 	c #A2A666",
"R 	c #333420",
"S 	c #1E1F13",
"T 	c #4D4F31",
"U 	c #575937",
"V 	c #6C6F44",
"W 	c #DFE48C",
"X 	c #545635",
"Y 	c #8C8F58",
"Z 	c #383923",
"` 	c #C7CC7E",
" .	c #0D0D08",
"..	c #90935B",
"+.	c #AAAE6B",
"@.	c #040402",
"#.	c #16170E",
"$.	c #A1A566",
"%.	c #EBF194",
"&.	c #252617",
"*.	c #F8FE9C",
"=.	c #EFF597",
"-.	c #D9DE89",
";.	c #797C4C",
">.	c #373822",
",.	c #1D1E12",
"'.	c #91945B",
").	c #10100A",
"!.	c #63653E",
"~.	c #C3C87B",
"{.	c #4A4C2F",
"].	c #696C42",
"^.	c #535534",
"/.	c #3E3F27",
"(.	c #4F5132",
"_.	c #A9AD6B",
":.	c #12120B",
"<.	c #CBD080",
"[.	c #4B4D2F",
"}.	c #15150D",
"|.	c #DCE18B",
"1.	c #3C3D26",
"2.	c #777A4B",
"3.	c #DEE38C",
"4.	c #898C56",
"5.	c #2C2D1C",
"6.	c #020201",
"7.	c #585A37",
"8.	c #999D61",
"9.	c #A5A968",
"0.	c #3F4128",
"a.	c #75784A",
"b.	c #868954",
"c.	c #676941",
"d.	c #1A1B11",
"e.	c #5E603B",
"f.	c #13130C",
"g.	c #414329",
"h.	c #11110A",
"i.	c #E3E88F",
"j.	c #7C7F4E",
"k.	c #878A55",
"l.	c #7A7D4D",
"m.	c #E4E98F",
"n.	c #828552",
"o.	c #ADB16D",
"p.	c #47492D",
"q.	c #B9BD74",
"r.	c #BBBF76",
"s.	c #BABE75",
"t.	c #BBC076",
"                                                                                                                                                                                                                                                                                    ",
"                                                                                                                                                                                                                                                                                    ",
"                                                                                                                                                                                                                                                                                    ",
"                                                                                                                                                                                                                                                                                    ",
"                                                                                                                                                                                                                                                                                    ",
"                                                                                                                                                                                                                                                                                    ",
"                                                                                                                                                                                                                                                                                    ",
"                                                                                                                                                                                                                                                                                    ",
"                                                                                                                                                                                                                                                                                    ",
"                                                                                                                                                                                                                                                                                    ",
"                                                                                                                                                                                                                                                                                    ",
"                                                                                                                                                                                                                                                                                    ",
"                                                                                                                                                                                                                                                                                    ",
"                                                                                                                                                                                                                                                                                    ",
"                                                                                                                                                                                                  . + + @                                                                           ",
"                                                                # $ % & * = - ;                                                       > , , '                                                     ) ! ! ~                                                                           ",
"                                                              { ] ! ! ! ! ! ! ^ ,                                                     + ! ! ^                                                     ) ! ! ~                                                                           ",
"                                                            / ! ! ! ! ^ ( _ ! ! :                                                     + ! ! ^                                                     ) ! ! ~                                                                           ",
"                                                          < [ ! ! } | 1   , 2 3 :         4 5 6 7                     > 8 9           + ! ! ^                     0 a b         4 5 6 7           ) ! ! ~         c d e f 1                                                         ",
"                                                          g ! ! h i           j 1     k l m ! ! h n o       p q q r s t ! ! u v     w m ! ! ! q q q x   p q q r y z ! A     k l m ! ! h n o       ) ! ! ~     : B C ! ! ! D E <                                                     ",
"                                                          F ! ! G                   H F ! ! ! ! ! ! I J     ) ! ! K C ! ! ! ! A     E ! ! ! ! ! ! ! e   ) ! ! L ] ! ! &   H F ! ! ! ! ! ! I J     ) ! ! ~     M ! ! ! ! ! ! ! +                                                     ",
"                                                        1 h ! ! N                   O ! ! m P Q R ! ! ( c   ) ! ! ! S ) T ! ! ! e   - U ! ! I V V V W   ) ! ! ! h G X w   O ! ! m P Q R ! ! ( c   ) ! ! ~   4 I ! } y 5 i Y Z `                                                     ",
"                                                        k ! ! ! {                 1  .! ! ..    # C ! ! +.  ) ! ! @.b   > #.! ! $.    + ! ! ^           ) ! ! ! Q       1  .! ! ..    # C ! ! +.  ) ! ! ~   %.! ! &.H         *.                                                    ",
"                                                        =.! ! ! Y                 v ! ! ! -.      Z ! ! ;.  ) ! ! E       >.! ! /     + ! ! ^           ) ! ! &.        v ! ! ! -.      Z ! ! ;.  ) ! ! ~     ,.! ! @.F X '.k                                                       ",
"                                                          ).! ! !.                ~.! ! ! %.      {.! ! ].  ) ! ! ^.      /.! ! {     + ! ! ^           ) ! ! (.        ~.! ! ! %.      {.! ! ].  ) ! ! ~     _.[ ! ! ! ! ! :.<.                                                    ",
"                                                          [.! ! }.'               a ! ! ! |.      1.! ! 2.  ) ! ! ~       /.! ! {     + ! ! ^           ) ! ! ~         a ! ! ! |.      1.! ! 2.  ) ! ! ~       3.4.X 5.6.! ! M                                                     ",
"                                                          +.! ! ! 7.0       4 P , 4 ] ! ! 8.    : D ! ! 9.  ) ! ! ~       /.! ! {     e ! ! C >         ) ! ! ~         4 ] ! ! 8.    : D ! ! 9.  ) ! ! ~     *.        s ! ! u                                                     ",
"                                                          > 0.! ! ! &.a.b.c.d.! :   e.! ! f.2 s g.! ! h.,   ) ! ! ~       /.! ! {     i.! ! ! X j.b.    ) ! ! ~           e.! ! f.2 s g.! ! h.,   ) ! ! ~     n k.+ ; i.l.! ! Z                                                     ",
"                                                            m.& ! ! ! ! ! ! ! ! :   # d.! ! ! ! ! ! h Q     ) ! ! ~       /.! ! {       R ! ! ! ! f.    ) ! ! ~           # d.! ! ! ! ! ! h Q     ) ! ! ~     f.! ! ! ! ! ! ! Y                                                     ",
"                                                              =.j.( ! ! ! ! S n.1     3.= 6.! ! ! 3 o.      ) ! ! ~       /.! ! {       b p. .! ! f.    ) ! ! ~             3.= 6.! ! ! 3 o.      ) ! ! ~     ^.m ! ! ! !  .l.*.                                                    ",
"                                                                  *.8 q.r.@               7 o s.9                                                                               7 o s.9                         > 9 t.s e c                                                         ",
"                                                                                                                                                                                                                                                                                    ",
"                                                                                                                                                                                                                                                                                    ",
"                                                                                                                                                                                                                                                                                    ",
"                                                                                                                                                                                                                                                                                    ",
"                                                                                                                                                                                                                                                                                    ",
"                                                                                                                                                                                                                                                                                    ",
"                                                                                                                                                                                                                                                                                    ",
"                                                                                                                                                                                                                                                                                    ",
"                                                                                                                                                                                                                                                                                    ",
"                                                                                                                                                                                                                                                                                    "};
