/* XPM */
static char * Exit_User_xpm[] = {
"84 56 510 2",
"  	c None",
". 	c #FFFFFF",
"+ 	c #FEFEFE",
"@ 	c #FDFDFD",
"# 	c #F2C0CB",
"$ 	c #FCFCFC",
"% 	c #FBFBFB",
"& 	c #FAFAFA",
"* 	c #F6F6F6",
"= 	c #F5F5F5",
"- 	c #F4F4F4",
"; 	c #F9F9F9",
"> 	c #F0F0F0",
", 	c #F1F1F1",
"' 	c #F2F2F2",
") 	c #74031C",
"! 	c #73031C",
"~ 	c #70031B",
"{ 	c #6D031B",
"] 	c #6B031A",
"^ 	c #E7E7E7",
"/ 	c #E8E8E8",
"( 	c #ECECEC",
"_ 	c #CC0632",
": 	c #CC0631",
"< 	c #CA0631",
"[ 	c #C80630",
"} 	c #C60630",
"| 	c #C4062F",
"1 	c #C2062F",
"2 	c #C0062F",
"3 	c #BF062E",
"4 	c #BB052E",
"5 	c #BA052D",
"6 	c #B8052D",
"7 	c #B6052C",
"8 	c #B4052C",
"9 	c #B2052B",
"0 	c #AF052B",
"a 	c #E2E2E2",
"b 	c #E6E6E6",
"c 	c #F7F7F7",
"d 	c #72031B",
"e 	c #6F031B",
"f 	c #6D031A",
"g 	c #D0D0D0",
"h 	c #D3D3D3",
"i 	c #DBDBDB",
"j 	c #CB0631",
"k 	c #C90631",
"l 	c #C40630",
"m 	c #C1062F",
"n 	c #BC062E",
"o 	c #BB052D",
"p 	c #B9052D",
"q 	c #B7052C",
"r 	c #B3052B",
"s 	c #B0052B",
"t 	c #AE052A",
"u 	c #C9C9C9",
"v 	c #DADADA",
"w 	c #71031B",
"x 	c #6C031A",
"y 	c #69031A",
"z 	c #B3B3B3",
"A 	c #B8B8B8",
"B 	c #C4C4C4",
"C 	c #5A0316",
"D 	c #590316",
"E 	c #560315",
"F 	c #540214",
"G 	c #510214",
"H 	c #C50630",
"I 	c #B7052D",
"J 	c #B5052C",
"K 	c #B3052C",
"L 	c #AE052B",
"M 	c #AC052A",
"N 	c #A9A9A9",
"O 	c #B5B5B5",
"P 	c #C5C5C5",
"Q 	c #D6D6D6",
"R 	c #6E031B",
"S 	c #690319",
"T 	c #949494",
"U 	c #9A9A9A",
"V 	c #ACACAC",
"W 	c #580315",
"X 	c #560215",
"Y 	c #530214",
"Z 	c #500213",
"` 	c #E5E5E5",
" .	c #EFEFEF",
"..	c #C70630",
"+.	c #BD062E",
"@.	c #AD052A",
"#.	c #AB052A",
"$.	c #898989",
"%.	c #999999",
"&.	c #AFAFAF",
"*.	c #C7C7C7",
"=.	c #DCDCDC",
"-.	c #72031C",
";.	c #680319",
">.	c #7B7B7B",
",.	c #838383",
"'.	c #570315",
").	c #550215",
"!.	c #520214",
"~.	c #4F0213",
"{.	c #B1B1B1",
"].	c #B6B6B6",
"^.	c #C3C3C3",
"/.	c #E4E4E4",
"(.	c #F8F8F8",
"_.	c #C3062F",
":.	c #C0062E",
"<.	c #BE062E",
"[.	c #5D5D5D",
"}.	c #535353",
"|.	c #525252",
"1.	c #555555",
"2.	c #595959",
"3.	c #5F5F5F",
"4.	c #616161",
"5.	c #626262",
"6.	c #646464",
"7.	c #6A6A6A",
"8.	c #C2A3AA",
"9.	c #F2D0D8",
"0.	c #F5D3DA",
"a.	c #F5D6DD",
"b.	c #919191",
"c.	c #797979",
"d.	c #BFBFBF",
"e.	c #F3F3F3",
"f.	c #464646",
"g.	c #3E3E3E",
"h.	c #404040",
"i.	c #484848",
"j.	c #515151",
"k.	c #606060",
"l.	c #797778",
"m.	c #DEB5BE",
"n.	c #F1DBE0",
"o.	c #F3DCE1",
"p.	c #F2C9D2",
"q.	c #F3F2F2",
"r.	c #929292",
"s.	c #4E0213",
"t.	c #AAAAAA",
"u.	c #C6C6C6",
"v.	c #EAEAEA",
"w.	c #BC052E",
"x.	c #3C3C3C",
"y.	c #363636",
"z.	c #4D4D4D",
"A.	c #696969",
"B.	c #707070",
"C.	c #747474",
"D.	c #767676",
"E.	c #7E7E7E",
"F.	c #888888",
"G.	c #A49C9E",
"H.	c #C54B66",
"I.	c #9E0526",
"J.	c #9C0526",
"K.	c #9A0425",
"L.	c #990425",
"M.	c #950424",
"N.	c #B84962",
"O.	c #E7DBDE",
"P.	c #F1C0CB",
"Q.	c #B5405A",
"R.	c #860421",
"S.	c #840420",
"T.	c #810420",
"U.	c #80041F",
"V.	c #7D041E",
"W.	c #B05A6D",
"X.	c #6A031A",
"Y.	c #660319",
"Z.	c #5F0317",
"`.	c #5C0316",
" +	c #4B0212",
".+	c #490212",
"++	c #470211",
"@+	c #440210",
"#+	c #410210",
"$+	c #CACACA",
"%+	c #969696",
"&+	c #989898",
"*+	c #9C9C9C",
"=+	c #A4A4A4",
"-+	c #CEB7BC",
";+	c #B22644",
">+	c #9B0525",
",+	c #970424",
"'+	c #920424",
")+	c #CD6D82",
"!+	c #CE6B81",
"~+	c #880421",
"{+	c #850420",
"]+	c #830420",
"^+	c #7E041F",
"/+	c #942840",
"(+	c #CAC5C6",
"_+	c #D2D2D2",
":+	c #670319",
"<+	c #650319",
"[+	c #828282",
"}+	c #5E0317",
"|+	c #5B0316",
"1+	c #4D0213",
"2+	c #4A0212",
"3+	c #480212",
"4+	c #450211",
"5+	c #430210",
"6+	c #D9D9D9",
"7+	c #B2B2B2",
"8+	c #B4B4B4",
"9+	c #B7B7B7",
"0+	c #BDBDBD",
"a+	c #CECECE",
"b+	c #DCABB6",
"c+	c #9F0E2E",
"d+	c #980425",
"e+	c #930424",
"f+	c #910423",
"g+	c #910726",
"h+	c #E195A5",
"i+	c #8B0623",
"j+	c #820420",
"k+	c #7F041F",
"l+	c #820E27",
"m+	c #A89297",
"n+	c #AEAEAE",
"o+	c #640318",
"p+	c #818181",
"q+	c #858585",
"r+	c #5D0317",
"s+	c #4C0212",
"t+	c #420210",
"u+	c #40020F",
"v+	c #AA0529",
"w+	c #A70529",
"x+	c #A60528",
"y+	c #A40528",
"z+	c #D8D7D7",
"A+	c #D68496",
"B+	c #960424",
"C+	c #940424",
"D+	c #900423",
"E+	c #8D0422",
"F+	c #9B1734",
"G+	c #991733",
"H+	c #870421",
"I+	c #8F5E69",
"J+	c #878787",
"K+	c #8F8F8F",
"L+	c #9F9F9F",
"M+	c #630318",
"N+	c #757575",
"O+	c #540215",
"P+	c #262626",
"Q+	c #2C2C2C",
"R+	c #3D3D3D",
"S+	c #6F6F6F",
"T+	c #B1052B",
"U+	c #AB0529",
"V+	c #A90529",
"W+	c #A20527",
"X+	c #BBBBBB",
"Y+	c #C2C2C2",
"Z+	c #CCCCCC",
"`+	c #D5D5D5",
" @	c #D7D7D7",
".@	c #D4CFD0",
"+@	c #C5556E",
"@@	c #920423",
"#@	c #8E0423",
"$@	c #8A0422",
"%@	c #81041F",
"&@	c #833345",
"*@	c #686868",
"=@	c #6B6B6B",
"-@	c #787878",
";@	c #8E8E8E",
">@	c #620318",
",@	c #222222",
"'@	c #272727",
")@	c #383838",
"!@	c #4E4E4E",
"~@	c #676767",
"{@	c #7F7F7F",
"]@	c #DFDFDF",
"^@	c #EEEEEE",
"/@	c #A60529",
"(@	c #A50528",
"_@	c #A30528",
":@	c #A00527",
"<@	c #A3A3A3",
"[@	c #BEBEBE",
"}@	c #D4D4D4",
"|@	c #D1D1D1",
"1@	c #CFBDC1",
"2@	c #AE2D49",
"3@	c #8B0422",
"4@	c #890421",
"5@	c #80172D",
"6@	c #514E4F",
"7@	c #505050",
"8@	c #5A5A5A",
"9@	c #8B8B8B",
"0@	c #610317",
"a@	c #5B5B5B",
"b@	c #6E6E6E",
"c@	c #252525",
"d@	c #2B2B2B",
"e@	c #A80529",
"f@	c #979797",
"g@	c #C1C1C1",
"h@	c #DEC4CA",
"i@	c #EAAAB8",
"j@	c #981230",
"k@	c #7D0922",
"l@	c #463639",
"m@	c #454545",
"n@	c #585858",
"o@	c #4A4A4A",
"p@	c #490211",
"q@	c #333333",
"r@	c #9B9B9B",
"s@	c #2E2E2E",
"t@	c #2D2D2D",
"u@	c #3B3B3B",
"v@	c #494949",
"w@	c #545454",
"x@	c #5C5C5C",
"y@	c #A1A1A1",
"z@	c #CFCFCF",
"A@	c #DFD1D4",
"B@	c #DB889B",
"C@	c #860420",
"D@	c #491D27",
"E@	c #353535",
"F@	c #A5A5A5",
"G@	c #610318",
"H@	c #343434",
"I@	c #C8C8C8",
"J@	c #BCBCBC",
"K@	c #D4D0D1",
"L@	c #F0C2CC",
"M@	c #C55B73",
"N@	c #671527",
"O@	c #242424",
"P@	c #4F4F4F",
"Q@	c #959595",
"R@	c #600317",
"S@	c #434343",
"T@	c #460211",
"U@	c #3A3A3A",
"V@	c #AA052A",
"W@	c #313131",
"X@	c #474747",
"Y@	c #C5C4C5",
"Z@	c #EAC7CE",
"`@	c #DD8D9E",
" #	c #7C041E",
".#	c #7B041E",
"+#	c #451A23",
"@#	c #393939",
"##	c #DDDDDD",
"$#	c #424242",
"%#	c #EEBEC8",
"&#	c #4D0212",
"*#	c #480211",
"=#	c #3F3F3F",
"-#	c #B0B0B0",
";#	c #C0C0C0",
">#	c #E0C9CE",
",#	c #EBAFBD",
"'#	c #981531",
")#	c #78041D",
"!#	c #7D0B25",
"~#	c #443639",
"{#	c #5E5E5E",
"]#	c #868686",
"^#	c #ADADAD",
"/#	c #CDCDCD",
"(#	c #E3E3E3",
"_#	c #6C6C6C",
":#	c #E3B8C2",
"<#	c #450210",
"[#	c #414141",
"}#	c #4C4C4C",
"|#	c #939393",
"1#	c #BABABA",
"2#	c #D8D8D8",
"3#	c #EBEBEB",
"4#	c #A20528",
"5#	c #D6CCCE",
"6#	c #F1BFCA",
"7#	c #B13953",
"8#	c #79041D",
"9#	c #78031D",
"0#	c #75031C",
"a#	c #7C192F",
"b#	c #5D5C5C",
"c#	c #848484",
"d#	c #ABABAB",
"e#	c #CBCBCB",
"f#	c #C8ACB2",
"g#	c #550819",
"h#	c #EBB5C1",
"i#	c #A30527",
"j#	c #A10527",
"k#	c #9D0526",
"l#	c #970425",
"m#	c #CAC8C9",
"n#	c #EDC2CB",
"o#	c #CD6B81",
"p#	c #8A2138",
"q#	c #A8364F",
"r#	c #7A041E",
"s#	c #75031D",
"t#	c #71031C",
"u#	c #743241",
"v#	c #7A7A7A",
"w#	c #5C0317",
"x#	c #6D6D6D",
"y#	c #9D9798",
"z#	c #EBBEC8",
"A#	c #721F31",
"B#	c #AD5E70",
"C#	c #EBB4C0",
"D#	c #9F0527",
"E#	c #9B0426",
"F#	c #8F0423",
"G#	c #DFBFC6",
"H#	c #E39AAA",
"I#	c #8A0724",
"J#	c #810C26",
"K#	c #534447",
"L#	c #9A737C",
"M#	c #88142C",
"N#	c #76031D",
"O#	c #70051D",
"P#	c #73555C",
"Q#	c #909090",
"R#	c #444444",
"S#	c #B8B4B5",
"T#	c #9E5363",
"U#	c #3E020F",
"V#	c #3C020F",
"W#	c #3A020E",
"X#	c #38020D",
"Y#	c #35020D",
"Z#	c #9F0526",
"`#	c #9A0526",
" $	c #BDB6B7",
".$	c #97203A",
"+$	c #6F424C",
"@$	c #4C222B",
"#$	c #730F25",
"$$	c #7E7678",
"%$	c #A0A0A0",
"&$	c #BBADB0",
"*$	c #5A1322",
"=$	c #3F020F",
"-$	c #3D020F",
";$	c #3B020E",
">$	c #39020E",
",$	c #37020D",
"'$	c #34020D",
")$	c #9B0526",
"!$	c #930423",
"~$	c #9E3F54",
"{$	c #833244",
"]$	c #6C2031",
"^$	c #7B293B",
"/$	c #B9B9B9",
"($	c #BAAEB0",
"_$	c #874C59",
":$	c #5D1828",
"<$	c #450613",
"[$	c #37020E",
"}$	c #33010C",
"|$	c #A6A6A6",
"1$	c #A2A2A2",
"2$	c #808080",
"3$	c #656565",
"4$	c #565656",
"5$	c #636363",
"6$	c #E1E1E1",
"7$	c #727272",
"8$	c #737373",
"9$	c #8C8C8C",
"0$	c #A7A7A7",
"a$	c #666666",
"b$	c #777777",
"c$	c #8D8D8D",
"d$	c #9D9D9D",
"e$	c #8A8A8A",
"f$	c #9E9E9E",
"g$	c #A8A8A8",
"h$	c #DEDEDE",
"i$	c #EDEDED",
"j$	c #E9E9E9",
"k$	c #E0E0E0",
". . . . . . . . . . . . . . . . . . . . . . . . . . . . . . . . . . . . . . . . . . . . . . . . . . . . . . . . . . . . . . . . . . . . . . . . . . . . . . . . . . . . ",
". . . . . . . . . . . . . . . . . . . . . . . . . . . . . . . . . . . . . . . . . . . . . . . . . . . . . . . . . . . . . . . . . . . . . . . . . . . . . . . . . . . . ",
". . . . . . . . . . . . . . . . . . . . . . . . . . . . . . . . . . . . . . . . . . . . . . . . . . . . . . . . . . . . . . . . . . . . . . . . . . . . . . . . . . . . ",
". . . . . . . . . . . . . . . . . . . . . . . . . . . . . . . . . . . . . . . . . . . . . . . . . . . . . . . . . . . . . . . . . . . . . . . . . . . . . . . . . . . . ",
". . . . . . . . . . . . . . . . . . . . . . . . . . . . . . . . . . . . . . . . . . . . . . . . . . . . . . . . . . . . . . . . . . . . . . . . . . . . . . . . . . . . ",
". . . . . . . . . . . . . . . . . . . . . . . . . . . . . . . . . . . . . . . . . . . . . . . . . . . . . . . . . . . . . . . . . . . . . . . . . . . . . . . . . . . . ",
". . . . . . . . . . . . . . . . . . . . . . . . . . . . . . . . . . . . . . . . . . . . . . . . . . . . . . . . . . . . . . . . . . . . . . . . . . . . . . . . . . . . ",
". . . . . . . . . . . . . . . . . . . . . . . . . . . . . . . . . . . . . . . . . . . . . . . . . . . . . . . . . . . . . . . . . . . . . . . . . . . . . . . . . . . . ",
". . . . . . . . . . . . . . . . . . . . . . . . . . . . . . . . . . . . . . . . . . . . . . . . . . . . . . . . . . . . . . . . . . . . . . . . . . . . . . . . . . . . ",
". . . . . . . . . . . . . . . . . . . . . . . . . . . . . . . . . . . . . . . . . . . . . . . . . . . . . . . . . . . . . . . . . . . . . . . . . . . . . . . . . . . . ",
". . . . . . . . . . . . . . . . . . . . . . . . . . . . . . . . . . . . . . . . . . . . . . . . . . . . . . . . . . . . . . . . . . . . . . . . . . . . . . . . . . . . ",
". . . . . . . . . . . . . . . . . . . . . . . . . . . . . . . . . . . . . . . . . . . . . . . . . . . . . . . . . . . . . . . . . . . . . . . . . . . . . . . . . . . . ",
". . . . . . . . . . . . . . . . . . . . . . . . . . . . . . . . . . . . . . . . . . . . . . . . . . . . . . . + + + + + + + . . . . . . . . . . . . . . . . . . . . . . ",
". . . . . . . . . . . . . . . + + @ @ @ @ @ @ @ @ @ @ @ @ @ @ + + . . . . . . . . . . . . . . . . . . # # # # # $ $ % $ $ @ + + . . . . . . . . . . . . . . . . . . . . ",
". . . . . . . . . . . # # # # # # # # # # # # # # # # & & % % $ @ + + . . . . . . . . . . . . . . . . # # # # # * = - = * ; % @ + + + + + + + + . . . . . . . . . . . . ",
". . . . . . . . . . . # # # # # # # # # # # # # # # # > , ' - * ; % @ + . . . . . . . . . . . . . . . # # ) ! ~ { ] ^ / ( # # # # # $ % % $ $ @ + + . . . . . . . . . . ",
". . . . . . . . . . . # # _ : < [ } | 1 2 3 4 5 6 7 8 9 0 a b ( , c % @ + . . . . . . . . . . . . . . # # ) d e f ] g h i # # # # # * = - = * ; % @ + . . . . . . . . . ",
". . . . . . . . . . . # # j k [ } l 1 m 3 n o p q 8 r s t u g v b > c % + . . . . . . . . . . . . . + # # ) w e x y z A B # # C D E F G ^ / ( ' c % @ + . . . . . . . . ",
". . . . . . . . . . + # # k [ H l 1 2 3 n o p I J K s L M N O P Q b ' ; @ + . . . . . . . . . . . . + $ c ! ~ R ] S T U V # # C W X Y Z g h i `  .c % + . . . . . . . . ",
". . . . . . . . . . + # # ..H | 1 2 3 +.o p I J K 9 0 @.#.$.%.&.*.=.( * % @ @ + + + + + + + + @ @ @ @ & - -.e f ] ;.>.,.%.# # C '.).!.~.{.].^.h /.> (.$ + + . . . . . . ",
". . . . . . . . . . + # # H _.m :.<.[.}.|.1.2.[.3.4.5.6.7.8.# # # # # 9.(.& % % 0.# # # # # a.% % % % # # # # # b.c.# # # # # D E F !.~.# # # d.Q / e.; $ + + . . . . . ",
". . . . . . . . . . + # # 1 m 3 3 n f.g.h.i.j.2.[.k.5.6.7.l.m.# # # # # n.' e.o.# # # # # p.q.e.e.- = # # # # # r.>.# # # # # W X Y G s.# # # t.u.=.v.e.(.% @ + . . . . ",
". . . . . . . . . . @ # # 2 3 <.w.o x.y.g.z.[.A.B.C.D.c.E.F.G.H.I.J.K.L.M.N.O.P.# # Q.R.S.T.U.V.W.b v.# # e f X.;.Y.# # Z.`.C '.).!.Z s. +.+++@+#+$+=./ , c % @ + . . . ",
". . . . . . . . . . @ # # 3 w.o 5 p # # # # # # # # %+&+*+=+&.-+;+>+L.,+M.'+)+# # !+~+{+]+U.^+/+(+_+v # # R ] S :+<+[+F.}+|+D E F !.~.1+2+3+4+5+#+O u 6+b > c $ + . . . ",
". . . . . . . . . . @ # # w.o 5 I q # # # # # # # # 7+8+9+0+P a+b+c+d+M.e+f+g+h+h+i+R.S.j+k+l+m+n+9+P # # { ] ;.Y.o+p+q+r+C W X Y G s.s+2+++4+t+u+*+7+*.6+/ e.& @ + . . ",
". . . . . . . . . . @ # # p p I 7 J K 9 s t @.v+v+w+x+y+^.u g Q z+A+B+C+f+D+E+F+G+H+{+]+U.^+I+J+K+L+z # # x X.:+<+M+N+c.J+# # O+!.~.s. +P+Q+R+1.S+F.L+9+a+a > (.@ + . . ",
". . . . . . . . . . @ # # I 7 J 8 r T+0 t M U+V+w+x+y+W+X+Y+Z+`+ @.@+@@@D+#@E+$@~+{+S.%@k+&@*@=@-@;@N # # ] S :+o+>@6.A.-@# # Y G ~.s+2+,@'@)@!@~@{@&+{.$+]@^@(.$ + . . ",
". . . . . . . . . . @ # # J 8 r 9 s t @.M v+V+/@(@_@W+:@<@&.[@Z+}@|@1@2@#@E+3@4@R.S.j+U.5@6@7@8@S+9@t.# # X.:+Y.M+0@1.a@b@# # !.G s.s+2+c@d@x.1.b@J+L+9+a+a > (.@ + . . ",
". . . . . . . . . . @ # # r 9 s L t M #.v+e@x+(@y+W+:@I.F.f@V g@g h h@i@j@3@4@H+S.]+U.k@l@R+m@n@C.T 8+# # S :+o+>@Z.o@|.A.# # !.~.1+ +p@Q+q@i.6.p+r@7+*.6+/ e.& @ + . . ",
". . . . . . . . . . @ # # s 0 t t M s@'@t@u@v@w@x@k.6.7.D.F.y@X+z@A@P.# B@4@H+C@S.%@k+D@d@E@f.4.[+F@Y+# # :+<+M+G@Z.m@!@*@# # G s.s+2+++H@R+1.D.f@z I@6+b > c $ + . . . ",
". . . . . . . . . . @ # # t @.M v+v+s@'@t@u@v@w@x@k.6.7.D.F.y@J@K@L@# # M@~+R.S.j+U.^+N@O@E@P@B.Q@9+|@# # Y.M+>@R@r+S@!@7.# # Z s. +p@T@U@m@4.q+N u.v ^ > c % @ + . . . ",
". . . . . . . . . . @ # # #.V@v+V+w+W@Q+y.X@2.~@S+C.-@E.F.&+n+Y@Z@# # `@~+H+S.j+U.^+ #.#+#@#n@E.F@P ### # <+M+R@Z.`.$#z.=@%## s.&#2+*#4+=#o@*@K+O h b , c % @ + . . . . ",
". . . . . . . . . . @ # # V+e@w+x+(@# # # # # # # # # *+<@-#;#>## # ,#'#R.S.]+%@k+V..#)#!#~#{#]#^#/#(## # M+G@Z.r+C $#!@_#:## s. +.+++<#[#}#=@|#1#2#3#* % @ + . . . . . ",
". . . . . . . . . . @ # # w+x+(@y+4## # # # # # # # # ].X+^.5#P.# 6#7#H+{+]+%@k+V. #8#9#0#a#b#c#d#e#a # # M+R@}+|+C S@!@_#f## g#2+*#4+5+h## # |#1#2#3#= & @ + . . . . . ",
". . . . . . . . . . @ # # (@y+i#W+j#:@I.k#J.K.L.l#M.C+'+f+m#n## # o#H+S.]+%@U.p#q#r#9#s#) t#u#v#y@Y+i # # G@Z.w#C W S@!@x#y#z#A#.+T@<#t+B#C## ;@8+|@` , c % @ + . . . . ",
". . . . . . . . . . @ # # W+j#j#D#I.I.J.E#L.d+,+M.C+@@f+F#G## # H#I#S.]+T.U.J#K#L#M#N#) ! ~ O#P#Q#7+a+# # Z.}+|+D E R#P@b@T S#T#*#4+t+#+U#V#W#X#Y#B 6+^ > c % @ + . . . ",
". . . . . . . . . . @ & , :@Z#I.k#J.`#K.L.l#M.M.e+f+f+#@E+=+-# $.${+S.%@U.^++$R#E@@$! ! w e f #$$$%$[@}@##Z.`.C W ).f.j.B.Q@8+&$*$@+#+=$-$;$>$,$'$-#u.2#b > c $ + . . . ",
". . . . . . . . . . @ & , I.J.)$K.L.L.l#B+M.C+!$f+D+#@E+3@J+%+~$S.]+%@U.^+{$1.m@=#h.]$w e f ] S ^$Q#-#u Q r+C W X F !@n@D.U /$u.($_$:$<$V#W#[$Y#}$U {.u.6+/ e.& @ + . . ",
". . . . . . . . . . + & ' a I@=+E.x@f.g.h.i.j.2.[.k.5.6.7.N+]#r@^#].{.L+q+=@n@j.w@x@5.5.x@w@j.n@_#J+|$g@|@|@;#1$2$3$a@3$2$1$d./#u 8+Q@N+{#w@4$5$N+$.%$9+a+6$> (.@ + . . ",
". . . . . . . . . . + % - b z@{.K+7$[.}.|.1.2.[.3.4.5.6.7.N+q+U d#8+&.L+$.N+7.7.7$E.J+J+{@8$7.=@D.9$0$;#g h *.n+b.v#7$>.r.&.u  @`+B t.;@-@7.a$=@b$]#U 7+$+]@^@(.$ + . . ",
". . . . . . . . . . + $ * 3#v g@0$K+E.N+7$7$C.N+D.b$-@v#{@F.%+0$O J@A d#U c$F.9@%+<@d#d#<@%+9$F.;@d$7+*.Q v _+d.N f@Q#f@N g@`+6$6$`+Y+V &+e$c#c#e$Q@F@/$z@a > (.@ + . . ",
". . . . . . . . . . + @ ; , ` }@g@{.=+f$r@U r@r@*+*+d$f$y@g$7+[@I@/#u ;#O ^#d#-#/$B e#e#B 1#-#d#n+9+P }@]@(#h$_+Y+].{.].^.}@a 3#( ` 2#I@1#n+g$F@g$&.1#$+v / e.& @ + . . ",
". . . . . . . . . . . + % c  .` 6+z@I@^.g@g@g@g@g@g@g@Y+B I@z@Q =.]@=. @g Z+Z+g  @h$a a h$ @g Z+Z+_+v (#v.i$3#(#v _+g h i ` ^@e.- , j$k$ @z@$+I@I@Z+h ##^ > c $ + . . . ",
". . . . . . . . . . . + @ % c , ( b a k$]@h$h$h$h$h$h$]@k$a ` j$( i$( j$b /./.^ 3# ., ,  .3#^ ` /.^ 3#> - = - , ( / ^ / ( , * ; & (.- > 3#b (#a a (#^ ( ' c % @ + . . . ",
". . . . . . . . . . . . + @ % ; * - ' , > > > > > > > > , ' e.= * c * = - e.e.- * (.; ; (.* - e.e.- * (.& % & (.* = - = * ; % @ @ $ % ; c = e.' ' e.= c ; $ @ + . . . . ",
". . . . . . . . . . . . . + + @ $ % % & & & & & & & & & & % % $ $ $ $ % % % % % $ @ @ @ @ $ % % % % $ $ @ @ @ @ $ $ % $ $ @ + + + + + @ $ % % & & % % $ @ + + . . . . . ",
". . . . . . . . . . . . . . . + + @ @ @ @ @ @ @ @ @ @ @ @ @ @ + + + + + @ @ @ + + + + + + + + @ @ @ + + + + + + + + + + + + + . . . . + + + + @ @ @ + + + . . . . . . . ",
". . . . . . . . . . . . . . . . . . . . . . . . . . . . . . . . . . . . . . . . . . . . . . . . . . . . . . . . . . . . . . . . . . . . . . . . . . . . . . . . . . . . ",
". . . . . . . . . . . . . . . . . . . . . . . . . . . . . . . . . . . . . . . . . . . . . . . . . . . . . . . . . . . . . . . . . . . . . . . . . . . . . . . . . . . . ",
". . . . . . . . . . . . . . . . . . . . . . . . . . . . . . . . . . . . . . . . . . . . . . . . . . . . . . . . . . . . . . . . . . . . . . . . . . . . . . . . . . . . ",
". . . . . . . . . . . . . . . . . . . . . . . . . . . . . . . . . . . . . . . . . . . . . . . . . . . . . . . . . . . . . . . . . . . . . . . . . . . . . . . . . . . . ",
". . . . . . . . . . . . . . . . . . . . . . . . . . . . . . . . . . . . . . . . . . . . . . . . . . . . . . . . . . . . . . . . . . . . . . . . . . . . . . . . . . . . ",
". . . . . . . . . . . . . . . . . . . . . . . . . . . . . . . . . . . . . . . . . . . . . . . . . . . . . . . . . . . . . . . . . . . . . . . . . . . . . . . . . . . . ",
". . . . . . . . . . . . . . . . . . . . . . . . . . . . . . . . . . . . . . . . . . . . . . . . . . . . . . . . . . . . . . . . . . . . . . . . . . . . . . . . . . . . ",
". . . . . . . . . . . . . . . . . . . . . . . . . . . . . . . . . . . . . . . . . . . . . . . . . . . . . . . . . . . . . . . . . . . . . . . . . . . . . . . . . . . . ",
". . . . . . . . . . . . . . . . . . . . . . . . . . . . . . . . . . . . . . . . . . . . . . . . . . . . . . . . . . . . . . . . . . . . . . . . . . . . . . . . . . . . "};
