/* XPM */
static char * frog_xpm[] = {
"18 18 212 2",
"  	c None",
". 	c #FFFFFF",
"+ 	c #FDFEFD",
"@ 	c #E5F2E5",
"# 	c #D9EBD5",
"$ 	c #F3F8F1",
"% 	c #FFFFFE",
"& 	c #F9FCF8",
"* 	c #EFF8EE",
"= 	c #EDF8ED",
"- 	c #E6F4E6",
"; 	c #C2E3C2",
"> 	c #76C771",
", 	c #A4CE8B",
"' 	c #E8EAD5",
") 	c #FBFCF8",
"! 	c #F9FAF6",
"~ 	c #CADFBC",
"{ 	c #75C069",
"] 	c #4FBA4F",
"^ 	c #39AD3A",
"/ 	c #2DAF2D",
"( 	c #3CBE38",
"_ 	c #8AC170",
": 	c #B9C2A1",
"< 	c #EEEFE9",
"[ 	c #F0F0EA",
"} 	c #C5C8AB",
"| 	c #8FC87A",
"1 	c #31BE30",
"2 	c #2DB72D",
"3 	c #2FB82F",
"4 	c #38C237",
"5 	c #5ECA53",
"6 	c #9BD08F",
"7 	c #EAF3E7",
"8 	c #F6F7F1",
"9 	c #C3D2AC",
"0 	c #6AB958",
"a 	c #3BC33A",
"b 	c #41C541",
"c 	c #47C747",
"d 	c #5BD05B",
"e 	c #6AD96A",
"f 	c #83D983",
"g 	c #E1F5E1",
"h 	c #FCFDFC",
"i 	c #BFE6BD",
"j 	c #54C651",
"k 	c #6DD86D",
"l 	c #80DF81",
"m 	c #83DF83",
"n 	c #83E083",
"o 	c #9EF19E",
"p 	c #BAFABA",
"q 	c #EEFEEE",
"r 	c #FEFFFE",
"s 	c #D9F3D8",
"t 	c #9AE599",
"u 	c #A8F4A8",
"v 	c #A3F2A3",
"w 	c #BBF9BB",
"x 	c #CBFECB",
"y 	c #C6FDC6",
"z 	c #D8FCD7",
"A 	c #F7FEF7",
"B 	c #F5FEF5",
"C 	c #D5FAD5",
"D 	c #C7FAC7",
"E 	c #D5FED5",
"F 	c #DFFFDE",
"G 	c #DFFFDF",
"H 	c #C4F4C4",
"I 	c #D4F3D4",
"J 	c #F3FAF3",
"K 	c #FEFEFE",
"L 	c #F2FAF2",
"M 	c #B4E7B4",
"N 	c #8EE28E",
"O 	c #C0F5C0",
"P 	c #E1FFE0",
"Q 	c #DEFEDE",
"R 	c #B2ECB2",
"S 	c #85D785",
"T 	c #88D188",
"U 	c #D7EFD7",
"V 	c #FCFEFC",
"W 	c #D9F0D9",
"X 	c #66CA66",
"Y 	c #48CB48",
"Z 	c #A2EAA2",
"` 	c #E0FEDF",
" .	c #C7F8C7",
"..	c #63CD63",
"+.	c #25A925",
"@.	c #A6DBA6",
"#.	c #F7FCF7",
"$.	c #FAFCFA",
"%.	c #CFEBCE",
"&.	c #78CB77",
"*.	c #3AB13A",
"=.	c #37B838",
"-.	c #97E297",
";.	c #E0FFDF",
">.	c #E2FFE1",
",.	c #DCFFDB",
"'.	c #85D984",
").	c #2CA52C",
"!.	c #A7D8A7",
"~.	c #F7FBF7",
"{.	c #EBF7EB",
"].	c #84D284",
"^.	c #2BB62B",
"/.	c #1A9E1A",
"(.	c #27A527",
"_.	c #84D984",
":.	c #DAFFDA",
"<.	c #95E095",
"[.	c #309F30",
"}.	c #A3D2A3",
"|.	c #C9E9C8",
"1.	c #78C878",
"2.	c #EFF7EF",
"3.	c #7ECF7E",
"4.	c #1CAA1C",
"5.	c #129512",
"6.	c #19A119",
"7.	c #61CC61",
"8.	c #C1F9C1",
"9.	c #DCFFDC",
"0.	c #D7FFD7",
"a.	c #83D483",
"b.	c #2D9E2E",
"c.	c #47B647",
"d.	c #52C851",
"e.	c #2CB42C",
"f.	c #AEE1AE",
"g.	c #D5ECD5",
"h.	c #96DA96",
"i.	c #FAFDFA",
"j.	c #BDE2BD",
"k.	c #38A138",
"l.	c #198E19",
"m.	c #17A216",
"n.	c #33BA32",
"o.	c #6FDE6F",
"p.	c #98F298",
"q.	c #8AE88A",
"r.	c #50BA51",
"s.	c #41B541",
"t.	c #47B947",
"u.	c #25B025",
"v.	c #C1E7C0",
"w.	c #CBE5CB",
"x.	c #31AE30",
"y.	c #6DCD6D",
"z.	c #92D892",
"A.	c #5CBE5C",
"B.	c #1F9A1E",
"C.	c #1F9B1F",
"D.	c #24B024",
"E.	c #21AF22",
"F.	c #29B329",
"G.	c #37C237",
"H.	c #32B332",
"I.	c #27A428",
"J.	c #41B341",
"K.	c #36BB36",
"L.	c #20B020",
"M.	c #2FAC2F",
"N.	c #E9F5E9",
"O.	c #89CF89",
"P.	c #29BF2A",
"Q.	c #29BA29",
"R.	c #2CB32C",
"S.	c #1FA31F",
"T.	c #31AA31",
"U.	c #5DB85D",
"V.	c #49B449",
"W.	c #40B340",
"X.	c #2EAF2E",
"Y.	c #62BC62",
"Z.	c #98D098",
"`.	c #3FA940",
" +	c #9AD19B",
".+	c #6BC26B",
"++	c #3BAF3B",
"@+	c #9CD09C",
"#+	c #A6D5A6",
"$+	c #28B028",
"%+	c #29BD29",
"&+	c #3EB83E",
"*+	c #91C590",
"=+	c #9AC89A",
"-+	c #A0D8A0",
";+	c #3FAE3F",
">+	c #76BE76",
",+	c #5AB35A",
"'+	c #A2D3A2",
")+	c #F4F9F4",
"!+	c #D6EAD6",
"~+	c #EEF6EE",
"{+	c #E2F1E2",
"]+	c #DAEEDA",
"^+	c #F5FAF5",
"/+	c #89C689",
"(+	c #6CBB6D",
"_+	c #C8E3C8",
":+	c #DCEBDC",
"<+	c #B4D4B4",
"[+	c #E2EFE2",
"}+	c #F9FCF9",
". . . . . . . . . + @ # $ . . . . . ",
". . . . % & * = - ; > , ' ) . . . . ",
". . . . ! ~ { ] ^ / ( _ : < . . . . ",
". . . . [ } | 1 2 3 4 5 6 7 . . . . ",
". . . . 8 9 0 a b c d e f g . . . . ",
". . . . h i j k l m n o p q . . . . ",
". . . . r s t u v w x y z A . . . . ",
". . . . . B C D E F G H I J K . . . ",
". . . . . L M N O P Q R S T U V . . ",
". . . . . W X Y Z P `  ...+.@.#.. . ",
". . . $.%.&.*.=.-.;.>.,.'.).!.#.~.. ",
". . . {.].^./.(._.:.>.F <.[.}.|.1.2.",
". . . {.3.4.5.6.7.8.9.0.a.b.c.d.e.f.",
"g.h.#.i.j.k.l.m.n.o.p.q.r.s.t.u.4.v.",
"w.x.y.z.A.B.C.D.E.F.G.H.I.J.K.L.M.N.",
"O.P.Q.R.S.T.U.V.W.X.Y.Z.`. +.+++@+$.",
"#+$+%+&+*+=+-+;+>+,+'+)+!+~+{+]+^+. ",
"^+/+(+_+$.$.:+<+[+^+}+. K . r r . . "};
