/* XPM */
static char * gamemodes_xpm[] = {
"138 41 174 2",
"  	c #F9FF9D",
". 	c #000000",
"+ 	c #BCC177",
"@ 	c #5F613C",
"# 	c #262718",
"$ 	c #0D0D08",
"% 	c #030302",
"& 	c #0F0F09",
"* 	c #2B2C1B",
"= 	c #5B5D39",
"- 	c #9FA364",
"; 	c #2F301E",
"> 	c #2E2F1D",
", 	c #EDF396",
"' 	c #535534",
") 	c #B2B670",
"! 	c #B1B56F",
"~ 	c #F8FE9C",
"{ 	c #44462B",
"] 	c #272819",
"^ 	c #A5A968",
"/ 	c #E4EA90",
"( 	c #F5FB9B",
"_ 	c #E7ED92",
": 	c #C2C77B",
"< 	c #848753",
"[ 	c #3B3C25",
"} 	c #A1A566",
"| 	c #EBF194",
"1 	c #9B9F62",
"2 	c #080805",
"3 	c #212215",
"4 	c #61633D",
"5 	c #D6DB87",
"6 	c #EEF496",
"7 	c #5D5F3A",
"8 	c #0A0A06",
"9 	c #16170E",
"0 	c #8A8D57",
"a 	c #D8DD88",
"b 	c #43452A",
"c 	c #070704",
"d 	c #747749",
"e 	c #4C4E30",
"f 	c #17180F",
"g 	c #050503",
"h 	c #11110A",
"i 	c #414329",
"j 	c #A7AB69",
"k 	c #BEC378",
"l 	c #BDC277",
"m 	c #191A10",
"n 	c #A2A666",
"o 	c #14140C",
"p 	c #040402",
"q 	c #13130C",
"r 	c #F0F697",
"s 	c #787B4C",
"t 	c #202114",
"u 	c #252617",
"v 	c #F6FC9B",
"w 	c #90935B",
"x 	c #3A3B24",
"y 	c #12120B",
"z 	c #0E0E09",
"A 	c #353621",
"B 	c #CACF7F",
"C 	c #45472C",
"D 	c #A4A867",
"E 	c #D2D784",
"F 	c #505232",
"G 	c #888B56",
"H 	c #818451",
"I 	c #65673F",
"J 	c #64663F",
"K 	c #7E814F",
"L 	c #47492D",
"M 	c #46482C",
"N 	c #F7FD9C",
"O 	c #555736",
"P 	c #F4FA9A",
"Q 	c #3D3E26",
"R 	c #696C42",
"S 	c #15150D",
"T 	c #E4E98F",
"U 	c #585A37",
"V 	c #9CA063",
"W 	c #DFE48C",
"X 	c #E6EC91",
"Y 	c #595B38",
"Z 	c #4B4D2F",
"` 	c #E9EF93",
" .	c #9EA264",
"..	c #4A4C2F",
"+.	c #9DA163",
"@.	c #232416",
"#.	c #999D61",
"$.	c #2A2B1A",
"%.	c #C1C67A",
"&.	c #DBE08A",
"*.	c #0B0B07",
"=.	c #E8EE93",
"-.	c #91955C",
";.	c #C7CC7E",
">.	c #F3F999",
",.	c #282919",
"'.	c #C8CD7E",
").	c #EFF597",
"!.	c #CBD080",
"~.	c #8B8E57",
"{.	c #31321F",
"].	c #1A1B11",
"^.	c #CCD181",
"/.	c #ECF295",
"(.	c #343521",
"_.	c #C5CA7C",
":.	c #383923",
"<.	c #545635",
"[.	c #6A6D43",
"}.	c #32331F",
"|.	c #B9BD74",
"1.	c #333420",
"2.	c #BBBF76",
"3.	c #BABE75",
"4.	c #E2E78E",
"5.	c #979B5F",
"6.	c #3F4128",
"7.	c #F2F899",
"8.	c #010101",
"9.	c #0C0C07",
"0.	c #C9CE7F",
"a.	c #020201",
"b.	c #B0B46F",
"c.	c #D9DE89",
"d.	c #090906",
"e.	c #2D2E1C",
"f.	c #AEB26E",
"g.	c #9A9E61",
"h.	c #727548",
"i.	c #3C3D26",
"j.	c #525434",
"k.	c #F1F798",
"l.	c #707347",
"m.	c #A8AC6A",
"n.	c #1B1C11",
"o.	c #A3A767",
"p.	c #363722",
"q.	c #D5DA86",
"r.	c #4E5031",
"s.	c #8F925A",
"t.	c #D0D583",
"u.	c #7C7F4E",
"v.	c #1E1F13",
"w.	c #393A24",
"x.	c #91945B",
"y.	c #898C56",
"z.	c #95995E",
"A.	c #10100A",
"B.	c #686B42",
"C.	c #5C5E3A",
"D.	c #63653E",
"E.	c #666840",
"F.	c #242517",
"G.	c #858854",
"H.	c #7B7E4E",
"I.	c #7A7D4D",
"J.	c #222316",
"K.	c #3E3F27",
"L.	c #42442A",
"M.	c #A0A465",
"N.	c #76794B",
"O.	c #060604",
"P.	c #6F7246",
"Q.	c #969A5F",
"                                                                                                                                                                                                                                                                                    ",
"                                                                                                                                                                                                                                                                                    ",
"                                                                                                                                                                                                                                                                                    ",
"                                                                                                                                                                                                                                                                                    ",
"                                                                                                                                                                                                                                                                                    ",
"                                                                                                                                                                                                                                                                                    ",
"                                                                                                                                                                                                                                                                                    ",
"                                                                                                                                                                                                                                                                                    ",
"                                                                                                                                                                                                                                                                                    ",
"                                                                                                                                                                                                                                                                                    ",
"                                                                                                                                                                                                                                                                                    ",
"                                                                                                                                                                                                                                                                                    ",
"                                                                                                                                                                                                                                                                                    ",
"                                                                                                                                                                                                                      . . .                                                         ",
"                + @ # $ % & * = -                                                                                                           . . . ;               > . . .                                             . . .                                                         ",
"            , ' . . . . . . . . .                                                                                                           . . . . )           ! . . . .                                             . . .                                                         ",
"          ~ { . . ] ^ / ( _ : < ;                                                                                                           . . . . [           [ . . . .                                             . . .                                                         ",
"          } . . ] |                       1 . . . 2 3 4 5         . . . 6 7 8 9 0   a b c 9 d (           ! e f g h i j                     . . . f . k       l . m . . .         n b o p q i }         r s t c u 0 ~ . . .         ! e f g h i j       v w x y % z A d B           ",
"          C . . D                         7 . . . . . . z E       . . . F . . . . G m . . . . H       ~ I . . . . . . . J                   . . . K . L       M . < . . .     N O . . . . . . . O N   P Q . . . . . J . . .     ~ I . . . . . . . J     R . . . . . . . .           ",
"          S . . T                         U V W ( X H . . Y       . . . Z `  .. . . ..` +.. . @.      #.. . $.%.P &.... . +.                . . . T c . B   B . *.=.. . .     -.. . # ;.>.;.# . . -.  0 . . ,.'.>.'.,.. . .     #.. . $.%.P &.... . +.  z . . n ).).!.~.{.          ",
"          p . . (         . . . . .                 v . . ].      . . . ^.  /.. . . B   P . . g       (.. . _.      T . . :.                . . .   7 . <.  ' . [.  . . .     }.. . |.      |.. . 1.  ; . . 2.      3.. . .     (.. . _.      T . . :.  z . . k                     ",
"          S . . 4.        . . . . .     ~ 5.6.S p . . . . p       . . . >.  ~ . . . 7.    8.. .       8 . . . . . . . . . 9.                . . .   0.. a.b.a.% c.  . . .     d.. . r       r . . 8   d.. . r       r . . .     8 . . . . . . . . . 9.  [.. . . 8 e.7 f.            ",
"          L . . g.            . . .     h.. . . . . . . . .       . . .       . . .       . . .       8 . . . . . . . . . .                 . . .     i.. 2 . j.    . . .     d.. . r       r . . 8   2 . . k.      r . . .     8 . . . . . . . . . .   v #.{ S . . . . l.          ",
"          m.. . n.W           . . .     h . . o.6   , . . .       . . .       . . .       . . .       p.. . q.                              . . .     m.. . . :     . . .     {.. . 3.      3.. . }.  ; . . 2.      3.. . .     p.. . q.                        /.D . . &           ",
"            r.. . 9 s.a >.>.t.. . .     $ . . f.>.5 j.. . .       . . .       . . .       . . .       +.. . ; 2.).( 4.|.u.*                 . . .     v v.. w.      . . .     x.. . ,.'.P 0.,.. . -.  y.. . ,.0.P 0.,.. . .     +.. . ; 2.).( 4.|.u.*   :.z.E k.k.j . . A.          ",
"            k.@ . . . . . . . . . .     B.. . . . . C.. . .       . . .       . . .       . . .         l.. . . . . . . . .                 . . .                   . . .     N <.. . . . . . . O N   >.[ . . . . . D.. . .       l.. . . . . . . . .   . . . . . . . . h.          ",
"                _.E.$.z a.9.F.e G.t.    P H.v.g v.I.( . . .       . . .       . . .       . . .           k = J.d.p 9 K.I.^.                . . .                   . . .         } L.y % y i M.        ).N.v.O.@.G N . . .         k = J.d.p 9 K.I.^.  '.P.{.9.% y Q Q.~           ",
"                                                                                                                                                                                                                                                                                    ",
"                                                                                                                                                                                                                                                                                    ",
"                                                                                                                                                                                                                                                                                    ",
"                                                                                                                                                                                                                                                                                    ",
"                                                                                                                                                                                                                                                                                    ",
"                                                                                                                                                                                                                                                                                    ",
"                                                                                                                                                                                                                                                                                    ",
"                                                                                                                                                                                                                                                                                    ",
"                                                                                                                                                                                                                                                                                    ",
"                                                                                                                                                                                                                                                                                    ",
"                                                                                                                                                                                                                                                                                    ",
"                                                                                                                                                                                                                                                                                    ",
"                                                                                                                                                                                                                                                                                    ",
"                                                                                                                                                                                                                                                                                    "};
