/* XPM */
static char * HighScores_xpm[] = {
"147 48 164 2",
"  	c #F9EF5C",
". 	c #ECE357",
"+ 	c #020202",
"@ 	c #F7ED5B",
"# 	c #BAB345",
"$ 	c #47441B",
"% 	c #121208",
"& 	c #060603",
"* 	c #201F0D",
"= 	c #5E5A24",
"- 	c #C0B847",
"; 	c #ABA43F",
"> 	c #040403",
", 	c #2C2A11",
"' 	c #4D4A1D",
") 	c #D1C94E",
"! 	c #F5EB5B",
"~ 	c #E5DB55",
"{ 	c #A69F3E",
"] 	c #3F3D18",
"^ 	c #D7CE50",
"/ 	c #0D0C06",
"( 	c #100F07",
"_ 	c #615D25",
": 	c #5C5823",
"< 	c #0C0B06",
"[ 	c #141409",
"} 	c #75712C",
"| 	c #F8EE5C",
"1 	c #070704",
"2 	c #E9DF56",
"3 	c #8D8835",
"4 	c #333114",
"5 	c #0B0A05",
"6 	c #AEA741",
"7 	c #F3E95A",
"8 	c #868032",
"9 	c #302E13",
"0 	c #888233",
"a 	c #F4EA5A",
"b 	c #EDE458",
"c 	c #666226",
"d 	c #131308",
"e 	c #050503",
"f 	c #A0993C",
"g 	c #111007",
"h 	c #080804",
"i 	c #24230E",
"j 	c #736F2B",
"k 	c #EAE157",
"l 	c #716D2B",
"m 	c #22210E",
"n 	c #44411A",
"o 	c #AFA841",
"p 	c #E6DC55",
"q 	c #1A190B",
"r 	c #4F4C1E",
"s 	c #908B36",
"t 	c #21200D",
"u 	c #827D31",
"v 	c #E8DE56",
"w 	c #46431B",
"x 	c #F2E85A",
"y 	c #3E3C18",
"z 	c #413E19",
"A 	c #4E4A1E",
"B 	c #595622",
"C 	c #EBE257",
"D 	c #545120",
"E 	c #726E2B",
"F 	c #25230F",
"G 	c #C5BD49",
"H 	c #373515",
"I 	c #D6CE4F",
"J 	c #EFE658",
"K 	c #6C6728",
"L 	c #343214",
"M 	c #9B953A",
"N 	c #030302",
"O 	c #565321",
"P 	c #A19A3C",
"Q 	c #8A8433",
"R 	c #0F0E07",
"S 	c #989239",
"T 	c #E7DD55",
"U 	c #C2BA48",
"V 	c #A49D3D",
"W 	c #A39C3D",
"X 	c #121108",
"Y 	c #1F1E0D",
"Z 	c #B9B245",
"` 	c #ACA640",
" .	c #C8C04A",
"..	c #3B3917",
"+.	c #0A0905",
"@.	c #514E1F",
"#.	c #282610",
"$.	c #B6AF44",
"%.	c #B5AE43",
"&.	c #CBC24B",
"*.	c #E4DB54",
"=.	c #302F13",
"-.	c #2F2D12",
";.	c #A59E3D",
">.	c #A29B3C",
",.	c #B2AB42",
"'.	c #C6BE49",
").	c #DFD652",
"!.	c #26240F",
"~.	c #4B481C",
"{.	c #7E792F",
"].	c #BDB546",
"^.	c #090904",
"/.	c #F0E759",
"(.	c #F6EC5B",
"_.	c #D0C84D",
":.	c #958F38",
"<.	c #5B5822",
"[.	c #EEE558",
"}.	c #CBC34B",
"|.	c #6F6B2A",
"1.	c #1D1C0C",
"2.	c #B7B044",
"3.	c #A7A03E",
"4.	c #CEC64C",
"5.	c #E2D954",
"6.	c #C7BF4A",
"7.	c #363415",
"8.	c #938D37",
"9.	c #D2CA4E",
"0.	c #2B2911",
"a.	c #8B8534",
"b.	c #C3BB48",
"c.	c #9E983B",
"d.	c #DDD452",
"e.	c #D4CC4F",
"f.	c #979138",
"g.	c #393716",
"h.	c #48451B",
"i.	c #19180A",
"j.	c #4C491D",
"k.	c #A9A23F",
"l.	c #43401A",
"m.	c #3D3B18",
"n.	c #403D19",
"o.	c #D5CD4F",
"p.	c #605C24",
"q.	c #D8CF50",
"r.	c #161609",
"s.	c #6E6929",
"t.	c #1C1B0C",
"u.	c #524F1F",
"v.	c #BFB747",
"w.	c #898333",
"x.	c #878132",
"y.	c #B8B144",
"z.	c #535020",
"A.	c #696527",
"B.	c #BBB445",
"C.	c #76722C",
"D.	c #4F4B1E",
"E.	c #C1B948",
"F.	c #B1AA42",
"G.	c #45421A",
"                                                                                                                                                                                                                                                                                                      ",
"                                                                                                                                                                                                                                                                                                      ",
"                                                                                                                                                                                                                                                                                                      ",
"                                                                                                                                                                                                                                                                                                      ",
"                                                                                                                                                                                                                                                                                                      ",
"                                                                                                                                                                                                                                                                                                      ",
"                                                                                                                                                                                                                                                                                                      ",
"                                                                                                                                                                                                                                                                                                      ",
"                                                                                                                                                                                                                                                                                                      ",
"                                                                                                                                                                                                                                                                                                      ",
"                                                                                                                                                                                                                                                                                                      ",
"                                                                                                                                                                                                                                                                                                      ",
"                                                                                                                                                                                                                                                                                                      ",
"                                                                                                                                                                                                                                                                                                      ",
"                                                                                                                                                                                                                                                                                                      ",
"                                                                                                                                                                                                                                                                                                      ",
"                                                                                                                                                                                                                                                                                                      ",
"                                                                                                                                                                                                                                                                                                      ",
"                                                                                              .                                                                                                                                                                                                       ",
"                                                                                + +             @               + +                                                                                                                                                                                   ",
"                                                    + +             + +         + +                             + +                               # $ % & * = -                                                                                                                                       ",
"                                                    + +             + +                                         + +                             ; > + + + + + +                                                                                                                                       ",
"                                                    + +             + +                                         + +                             , + ' ) ! ~ { ]                                                                                                                                       ",
"                                                    + +             + +         + +       ^ ' / ( _ . + +       + + . : < [ } |                 1 + 2                   ! 3 4 / 5 ] 6       7 8 9 5 5 9 0 a       + + b c d e     f ] g h i j k     b l m 1 ( n o                                     ",
"                                                    + +             + +         + +     p q + + + + ' + +       + + r + + + + s                 t + u v               a w + + + + + +     x y + + + + + + z a     + + A + + + | B + + + + + + , C   D + + + + + +                                     ",
"                                                    + + + + + + + + + +         + +     E + F G 7 G i + +       + + H I J K + L                 M + + N F O P a       Q + R S T 7 U r     8 + % V b b W X + 0     + + Y Z 7   S + m ` k a  ...+ }   +.+ s C 7 G @.                                    ",
"                                                    + + + + + + + + + +         + +     #.+ $.      %.+ +       + + &.    *.+ /                   # ' / + + + =.*.    9 + P               -.+ ;.        >.+ =.    + + ,.      H + '.        ).+ !.  Y + ~.{.].@                                       ",
"                                                    + +             + +         + +     ^.+ /.      J + +       + + (.      + +                       (._.:.i + <.    5 + b               +.+ [.        b + 5     + + J       < + + + + + + + + 1   ,.% + + + F }.                                    ",
"                                                    + +             + +         + +     ^.+ /.      J + +       + +         + +                             ^ + [     5 + b               +.+ [.        b + 5     + +         5 + + + + + + + + +     J ` |.1.+ L                                     ",
"                                                    + +             + +         + +     #.+ 2.      $.+ +       + +         + +                             p + 1     =.+ >.              -.+ 3.        V + =.    + +         L + 4.                        5.+ e |                                   ",
"                                                    + +             + +         + +     l + !.6.a 6.!.+ +       + +         + +                 7.8.9.x 7  .n + 0.    a.+ g M v 7 b.r     8 + [ 3.[.[.;.% + 0     + +         M + Y c.d.! x e.f.g.  h.$.[.b f.+ +.                                    ",
"                                                    + +             + +         + +     *.i.+ + + + j.+ &       + +         + +                 + + + + + + + > k.    a l.+ + + + + +     x m.+ + + + + + n.7     + +           K + + + + + + + +   + + + + + + B                                     ",
"                                                    + +             + +         + +       o.~.< ( p.q.+ r.      + +         + +                 6.s.-.5 1 t.u.v.        a w.-.+./ n.6       x 8 -.+.5 -.x.7       + +             y.z.t.1 5 , A.G   B.u.[ & m C./.                                    ",
"                                                                                                    M + n.                                                                                                                                                                                            ",
"                                                                                          D.E.x k P X + s                                                                                                                                                                                             ",
"                                                                                          + + + + + + 4 7                                                                                                                                                                                             ",
"                                                                                          F.G.g h i j C                                                                                                                                                                                               ",
"                                                                                                                                                                                                                                                                                                      ",
"                                                                                                                                                                                                                                                                                                      ",
"                                                                                                                                                                                                                                                                                                      ",
"                                                                                                                                                                                                                                                                                                      ",
"                                                                                                                                                                                                                                                                                                      ",
"                                                                                                                                                                                                                                                                                                      ",
"                                                                                                                                                                                                                                                                                                      ",
"                                                                                                                                                                                                                                                                                                      ",
"                                                                                                                                                                                                                                                                                                      ",
"                                                                                                                                                                                                                                                                                                      ",
"                                                                                                                                                                                                                                                                                                      "};
