/* XPM */
static char * hud_xpm[] = {
"138 41 55 1",
" 	c #F9FF9D",
".	c #000000",
"+	c #010101",
"@	c #070704",
"#	c #15150D",
"$	c #2B2C1B",
"%	c #545635",
"&	c #989C60",
"*	c #EFF597",
"=	c #18190F",
"-	c #B5B972",
";	c #F4FA9A",
">	c #D8DD88",
",	c #878A55",
"'	c #0E0E09",
")	c #040402",
"!	c #AFB36E",
"~	c #C6CB7D",
"{	c #11110A",
"]	c #E5EB91",
"^	c #6E7146",
"/	c #7F8250",
"(	c #C0C579",
"_	c #353621",
":	c #E9EF93",
"<	c #F5FB9B",
"[	c #020201",
"}	c #E8EE93",
"|	c #0F0F09",
"1	c #030302",
"2	c #F8FE9C",
"3	c #F7FD9C",
"4	c #BFC479",
"5	c #15160E",
"6	c #E7ED92",
"7	c #16170E",
"8	c #6C6F44",
"9	c #4B4D2F",
"0	c #B3B771",
"a	c #B0B46F",
"b	c #4C4E30",
"c	c #060604",
"d	c #B6BA73",
"e	c #CCD181",
"f	c #CBD080",
"g	c #292A1A",
"h	c #B7BB73",
"i	c #D9DE89",
"j	c #AEB26E",
"k	c #848753",
"l	c #C9CE7F",
"m	c #666840",
"n	c #0D0D08",
"o	c #13130C",
"p	c #999D61",
"                                                                                                                                          ",
"                                                                                                                                          ",
"                                                                                                                                          ",
"                                                                                                                                          ",
"                                                                                                                                          ",
"                                                                                                                                          ",
"                                                                                                                                          ",
"                                                                                                                                          ",
"                                                                                                                                          ",
"                                                                                                                                          ",
"                                                                                                                                          ",
"                                                                                                                                          ",
"                                                                                                                                          ",
"                                                                                                                                          ",
"                                             ....     ....    ....     ....   ....+@#$%&*                                                 ",
"                                             ....     ....    ....     ....   ..........=-                                                ",
"                                             ....     ....    ....     ....   .... ;>,'..)!                                               ",
"                                             ....     ....    ....     ....   ....    ~@..{]                                              ",
"                                             ....     ....    ....     ....   ....     ^.../                                              ",
"                                             ....     ....    ....     ....   ....     (..._                                              ",
"                                             .............    ....     ....   ....     :...'                                              ",
"                                             .............    ....     ....   ....     <...[                                              ",
"                                             ....     ....    ....     ....   ....     }...|                                              ",
"                                             ....     ....    1...2   3...1   ....     4..._                                              ",
"                                             ....     ....    5...}   6...7   ....     8.../                                              ",
"                                             ....     ....    9...0   a...b   ....    ~c..{]                                              ",
"                                             ....     ....    d...$e;fg...h   .... <i,'..)j                                               ",
"                                             ....     ....     k[.......[k    ..........=-                                                ",
"                                             ....     ....      lm$n1n$ml     ....+co$%p*                                                 ",
"                                                                                                                                          ",
"                                                                                                                                          ",
"                                                                                                                                          ",
"                                                                                                                                          ",
"                                                                                                                                          ",
"                                                                                                                                          ",
"                                                                                                                                          ",
"                                                                                                                                          ",
"                                                                                                                                          ",
"                                                                                                                                          ",
"                                                                                                                                          ",
"                                                                                                                                          "};
