/* XPM */
static char * mushroom_xpm[] = {
"18 18 181 2",
"  	c None",
". 	c #FFFFFF",
"+ 	c #FEFEFE",
"@ 	c #FBFBFB",
"# 	c #FAFAFA",
"$ 	c #FAF6F6",
"% 	c #FAF9F9",
"& 	c #E4DFDF",
"* 	c #BDB6B6",
"= 	c #AEA9A9",
"- 	c #AFA0A0",
"; 	c #A84A4A",
"> 	c #A56161",
", 	c #AFA8A8",
"' 	c #E0DDDD",
") 	c #F8F7F7",
"! 	c #F2F0F0",
"~ 	c #CBB4B4",
"{ 	c #B26B6B",
"] 	c #E28888",
"^ 	c #FAA6A6",
"/ 	c #FA6767",
"( 	c #FA1616",
"_ 	c #FA8181",
": 	c #EFD0D0",
"< 	c #B58484",
"[ 	c #C2ACAC",
"} 	c #EDEBEB",
"| 	c #C3B2B2",
"1 	c #C37C7C",
"2 	c #F94B4B",
"3 	c #FA0808",
"4 	c #FA0909",
"5 	c #FA1313",
"6 	c #FA1515",
"7 	c #FA3838",
"8 	c #FA6B6B",
"9 	c #CB8282",
"0 	c #BAA8A8",
"a 	c #ECE9E9",
"b 	c #F1EEEE",
"c 	c #C3ACAC",
"d 	c #CCAEAE",
"e 	c #FBF4F4",
"f 	c #FA9C9C",
"g 	c #FA2020",
"h 	c #FA4D4D",
"i 	c #FA8585",
"j 	c #FA4A4A",
"k 	c #FA0C0C",
"l 	c #FA1F1F",
"m 	c #FAC7C7",
"n 	c #FAFFFF",
"o 	c #D29B9B",
"p 	c #B99393",
"q 	c #F4F3F3",
"r 	c #F9F8F8",
"s 	c #C7B3B3",
"t 	c #C67575",
"u 	c #FBBCBC",
"v 	c #FAEAEA",
"w 	c #FAA5A5",
"x 	c #FA5656",
"y 	c #FAB6B6",
"z 	c #FA3A3A",
"A 	c #FA9898",
"B 	c #FACBCB",
"C 	c #FA7676",
"D 	c #C36B6B",
"E 	c #CECACA",
"F 	c #FDFDFD",
"G 	c #DBDADA",
"H 	c #B79E9E",
"I 	c #FB9F9F",
"J 	c #FA5252",
"K 	c #FA7777",
"L 	c #FA4242",
"M 	c #FA3E3E",
"N 	c #FAC1C1",
"O 	c #FAE4E4",
"P 	c #FA4C4C",
"Q 	c #FA0000",
"R 	c #F92222",
"S 	c #EF3B3B",
"T 	c #DF3838",
"U 	c #D8C8C8",
"V 	c #A0A1A1",
"W 	c #F9F9F9",
"X 	c #B1B2B2",
"Y 	c #EFEEEE",
"Z 	c #FBBDBD",
"` 	c #FA1717",
" .	c #FA6E6E",
"..	c #EFA9A9",
"+.	c #D57F7E",
"@.	c #CF3636",
"#.	c #D22A2A",
"$.	c #D23C3C",
"%.	c #CE4E4E",
"&.	c #C87A7A",
"*.	c #C6C0C0",
"=.	c #C3C2C2",
"-.	c #DDDCDC",
";.	c #C2B3B3",
">.	c #FCDBDB",
",.	c #F86767",
"'.	c #EE0000",
").	c #E10000",
"!.	c #D40101",
"~.	c #C60303",
"{.	c #B61010",
"].	c #9F1E1E",
"^.	c #7B1111",
"/.	c #A56464",
"(.	c #CAACAC",
"_.	c #CCC4C4",
":.	c #F2F2F2",
"<.	c #C5C3C3",
"[.	c #BCA1A1",
"}.	c #CAA4A4",
"|.	c #CA6262",
"1.	c #CB6060",
"2.	c #CC6F6F",
"3.	c #C47676",
"4.	c #944444",
"5.	c #650808",
"6.	c #610808",
"7.	c #580A0A",
"8.	c #A88D8D",
"9.	c #F3F3F3",
"0.	c #E9E8E8",
"a.	c #D7CECE",
"b.	c #D6D0D0",
"c.	c #D8D7D7",
"d.	c #E1E1E1",
"e.	c #ECECEC",
"f.	c #E2E2E2",
"g.	c #917777",
"h.	c #510E0E",
"i.	c #550B0A",
"j.	c #4D0D0C",
"k.	c #8F7979",
"l.	c #E9E9E9",
"m.	c #F6F6F6",
"n.	c #AB9A99",
"o.	c #5B1F1E",
"p.	c #5D0A09",
"q.	c #550D0C",
"r.	c #957D7C",
"s.	c #EAEAEA",
"t.	c #BFAFAF",
"u.	c #682626",
"v.	c #6A0808",
"w.	c #680909",
"x.	c #7A4C4C",
"y.	c #D9D3D3",
"z.	c #BBA9A9",
"A.	c #631E1E",
"B.	c #6B0909",
"C.	c #631616",
"D.	c #AC9797",
"E.	c #B39C9C",
"F.	c #5B0F0F",
"G.	c #754848",
"H.	c #DDD7D6",
"I.	c #AE9594",
"J.	c #580A09",
"K.	c #581313",
"L.	c #C9BABA",
"M.	c #C4BBBB",
"N.	c #654140",
"O.	c #501716",
"P.	c #4C0E0D",
"Q.	c #541C1B",
"R.	c #755858",
"S.	c #DCD7D7",
"T.	c #FCFCFC",
"U.	c #F7F5F5",
"V.	c #F5F2F2",
"W.	c #F4F1F1",
"X.	c #F5F3F3",
". . . . . . + @ # # $ $ # + . . . . ",
". . . . . % & * = - ; > , ' ) + . . ",
". . . + ! ~ { ] ^ / ( _ : < [ } + . ",
". . + } | 1 2 3 4 5 3 6 7 8 9 0 a + ",
". + b c d e f g h i j k l m n o p q ",
". r s t u v w x y n m z 5 A B C D E ",
"F G H I J K L M N n O P Q R S T U V ",
"W X Y Z 3 Q Q `  ...+.@.#.$.%.&.*.=.",
"-.;.>.,.'.).!.~.{.].^./.(._.G :.+ . ",
"<.[.}.|.1.2.3.4.5.6.7.8.9.. . . . . ",
"0.a.b.c.d.e.f.g.h.i.j.k.l.. . . . . ",
". . . . . . m.n.o.p.q.r.s.. . . . . ",
". . . . . . . t.u.v.w.x.y.. . . . . ",
". . . . . . . z.A.v.B.C.D.9.. . . . ",
". . . . . . + E.F.v.B.w.G.H.. . . . ",
". . . . . . F I.J.v.v.B.K.L.F . . . ",
". . . . . . . M.N.O.P.Q.R.S.+ . . . ",
". . . . . . . T.U.V.W.X.) F . . . . "};
