/* XPM */
static char * a_xpm[] = {
"147 48 155 2",
"  	c None",
". 	c #F9EF5C",
"+ 	c #000000",
"@ 	c #716C29",
"# 	c #EFE558",
"$ 	c #8D8734",
"% 	c #3D3B16",
"& 	c #121106",
"* 	c #030301",
"= 	c #0D0D05",
"- 	c #2E2C11",
"; 	c #696526",
"> 	c #C3BB48",
", 	c #040401",
"' 	c #D2CA4D",
") 	c #D5CD4F",
"! 	c #26240E",
"~ 	c #454219",
"{ 	c #25230D",
"] 	c #9E973A",
"^ 	c #DDD451",
"/ 	c #F4EA5A",
"( 	c #EEE458",
"_ 	c #CFC64C",
": 	c #928C36",
"< 	c #363414",
"[ 	c #47441A",
"} 	c #ABA43F",
"| 	c #9F983A",
"1 	c #0E0E05",
"2 	c #050502",
"3 	c #22200C",
"4 	c #726D2A",
"5 	c #EAE056",
"6 	c #F1E759",
"7 	c #010100",
"8 	c #EDE357",
"9 	c #2D2C10",
"0 	c #060602",
"a 	c #28260E",
"b 	c #EBE156",
"c 	c #B5AE43",
"d 	c #49461B",
"e 	c #080803",
"f 	c #373514",
"g 	c #B7B043",
"h 	c #5C5922",
"i 	c #858031",
"j 	c #E4DB54",
"k 	c #53501F",
"l 	c #0A0A03",
"m 	c #77722C",
"n 	c #F8EE5B",
"o 	c #D1C94D",
"p 	c #201E0B",
"q 	c #575420",
"r 	c #29280F",
"s 	c #393715",
"t 	c #BAB344",
"u 	c #E8DF55",
"v 	c #BBB345",
"w 	c #3A3815",
"x 	c #3C3A16",
"y 	c #A59E3C",
"z 	c #C7BF49",
"A 	c #4B481B",
"B 	c #A69F3D",
"C 	c #312F12",
"D 	c #948E36",
"E 	c #6C6828",
"F 	c #7E792E",
"G 	c #979137",
"H 	c #746F2A",
"I 	c #76712B",
"J 	c #868131",
"K 	c #ACA53F",
"L 	c #211F0C",
"M 	c #AFA840",
"N 	c #878232",
"O 	c #111006",
"P 	c #524E1E",
"Q 	c #C8C049",
"R 	c #F3E959",
"S 	c #55521F",
"T 	c #333113",
"U 	c #F0E658",
"V 	c #6E6928",
"W 	c #0C0C04",
"X 	c #343213",
"Y 	c #090903",
"Z 	c #DBD251",
"` 	c #353313",
" .	c #C5BD48",
"..	c #DED552",
"+.	c #24220D",
"@.	c #B1AA41",
"#.	c #A29B3B",
"$.	c #736E2A",
"%.	c #B2AB42",
"&.	c #F5EB5A",
"*.	c #E9E056",
"=.	c #1C1B0A",
"-.	c #C9C14A",
";.	c #0B0B04",
">.	c #918B35",
",.	c #020201",
"'.	c #1E1D0B",
").	c #302E12",
"!.	c #191809",
"~.	c #181709",
"{.	c #ECE257",
"].	c #100F06",
"^.	c #E5DC54",
"/.	c #F6EC5A",
"(.	c #2A290F",
"_.	c #B8B144",
":.	c #D4CC4E",
"<.	c #5B5821",
"[.	c #29270F",
"}.	c #323012",
"|.	c #CEC54C",
"1.	c #646025",
"2.	c #A0993B",
"3.	c #6D6828",
"4.	c #A49D3C",
"5.	c #4D4A1C",
"6.	c #9A9439",
"7.	c #1D1C0A",
"8.	c #9D963A",
"9.	c #DCD351",
"0.	c #F2E859",
"a.	c #D3CB4E",
"b.	c #969037",
"c.	c #A8A23E",
"d.	c #070702",
"e.	c #E3DA54",
"f.	c #E2D953",
"g.	c #A9A33E",
"h.	c #D7CF4F",
"i.	c #54511F",
"j.	c #6A6627",
"k.	c #2C2B10",
"l.	c #CDC44B",
"m.	c #938D36",
"n.	c #4F4B1D",
"o.	c #4A471B",
"p.	c #1A1909",
"q.	c #676326",
"r.	c #C4BC48",
"s.	c #27250E",
"t.	c #807B2F",
"u.	c #5F5B23",
"v.	c #504C1D",
"w.	c #0F0E05",
"x.	c #5D5922",
". . . . . . . . . . . . . . . . . . . . . . . . . . . . . . . . . . . . . . . . . . . . . . . . . . . . . . . . . . . . . . . . . . . . . . . . . . . . . . . . . . . . . . . . . . . . . . . . . . . . . . . . . . . . . . . . . . . . . . . . . . . . . . . . . . . . . . . . . . . . . . . . . . . ",
". . . . . . . . . . . . . . . . . . . . . . . . . . . . . . . . . . . . . . . . . . . . . . . . . . . . . . . . . . . . . . . . . . . . . . . . . . . . . . . . . . . . . . . . . . . . . . . . . . . . . . . . . . . . . . . . . . . . . . . . . . . . . . . . . . . . . . . . . . . . . . . . . . . ",
". . . . . . . . . . . . . . . . . . . . . . . . . . . . . . . . . . . . . . . . . . . . . . . . . . . . . . . . . . . . . . . . . . . . . . . . . . . . . . . . . . . . . . . . . . . . . . . . . . . . . . . . . . . . . . . . . . . . . . . . . . . . . . . . . . . . . . . . . . . . . . . . . . . ",
". . . . . . . . . . . . . . . . . . . . . . . . . . . . . . . . . . . . . . . . . . . . . . . . . . . . . . . . . . . . . . . . . . . . . . . . . . . . . . . . . . . . . . . . . . . . . . . . . . . . . . . . . . . . . . . . . . . . . . . . . . . . . . . . . . . . . . . . . . . . . . . . . . . ",
". . . . . . . . . . . . . . . . . . . . . . . . . . . . . . . . . . . . . . . . . . . . . . . . . . . . . . . . . . . . . . . . . . . . . . . . . . . . . . . . . . . . . . . . . . . . . . . . . . . . . . . . . . . . . . . . . . . . . . . . . . . . . . . . . . . . . . . . . . . . . . . . . . . ",
". . . . . . . . . . . . . . . . . . . . . . . . . . . . . . . . . . . . . . . . . . . . . . . . . . . . . . . . . . . . . . . . . . . . . . . . . . . . . . . . . . . . . . . . . . . . . . . . . . . . . . . . . . . . . . . . . . . . . . . . . . . . . . . . . . . . . . . . . . . . . . . . . . . ",
". . . . . . . . . . . . . . . . . . . . . . . . . . . . . . . . . . . . . . . . . . . . . . . . . . . . . . . . . . . . . . . . . . . . . . . . . . . . . . . . . . . . . . . . . . . . . . . . . . . . . . . . . . . . . . . . . . . . . . . . . . . . . . . . . . . . . . . . . . . . . . . . . . . ",
". . . . . . . . . . . . . . . . . . . . . . . . . . . . . . . . . . . . . . . . . . . . . . . . . . . . . . . . . . . . . . . . . . . . . . . . . . . . . . . . . . . . . . . . . . . . . . . . . . . . . . . . . . . . . . . . . . . . . . . . . . . . . . . . . . . . . . . . . . . . . . . . . . . ",
". . . . . . . . . . . . . . . . . . . . . . . . . . . . . . . . . . . . . . . . . . . . . . . . . . . . . . . . . . . . . . . . . . . . . . . . . . . . . . . . . . . . . . . . . . . . . . . . . . . . . . . . . . . . . . . . . . . . . . . . . . . . . . . . . . . . . . . . . . . . . . . . . . . ",
". . . . . . . . . . . . . . . . . . . . . . . . . . . . . . . . . . . . . . . . . . . . . . . . . . . . . . . . . . . . . . . . . . . . . . . . . . . . . . . . . . . . . . . . . . . . . . . . . . . . . . . . . . . . . . . . . . . . . . . . . . . . . . . . . . . . . . . . . . . . . . . . . . . ",
". . . . . . . . . . . . . . . . . . . . . . . . . . . . . . . . . . . . . . . . . . . . . . . . . . . . . . . . . . . . . . . . . . . . . . . . . . . . . . . . . . . . . . . . . . . . . . . . . . . . . . . . . . . . . . . . . . . . . . . . . . . . . . . . . . . . . . . . . . . . . . . . . . . ",
". . . . . . . . . . . . . . . . . . . . . . . . . . . . . . . . . . . . . . . . . . . . . . . . . . . . . . . . . . . . . . . . . . . . . . . . . . . . . . . . . . . . . . . . . . . . . . . . . . . . . . . . . . . . . . . . . . . . . . . . . . . . . . . . . . . . . . . . . . . . . . . . . . . ",
". . . . . . . . . . . . . . . . . . . . . . . . . . . . . . . . . . . . . . . . . . . . . . . . . . . . . . . . . . . . . . . . . . . . . . . . . . . . . . . . . . . . . . . . . . . . . . . . . . . . . . . . . . . . . . . . . . . . . . . . . . . . . . . . . . . . . . . . . . . . . . . . . . . ",
". . . . . . . . . . . . . . . . . . . . . . . . . . . . . . . . . . . . . . . . . . . . . . . . . . . . . . . . . . . . . . . . . . . . . . . . . . . . . . . . . . . . . . . . . . . . . . . . . . . . . . . . . . . . . . . . . . . . . . . . . . . . . . . . . . . . . . . . . . . . . . . . . . . ",
". . . . . . . . . . . . . . . . . . . . . . . . . . . . . . . . . . . . . . . . . . . . . . . . . . . . . . . . . . . . . . . . . . . . . . . . . . . . . . . . . . . . . . . . . . . . . . . . . . . . . . . . . . . . . . . . . . . . . . . . . . . . . . . . . . . . . . . . . . . . . . . . . . . ",
". . . . . . . . . . . . . . . . . . . . . . . . . . . . . . . . . . . . . . . . . . . . . . . . . . . . . . . . . . . . . . . . . . . . . . . . . . . . . . . . . . . . . . . . . . . . . . . . . . . . . . . . . . . . . . . . . . . . . . . . . . . . . . . . . . . . . . . . . . . . . . . . . . . ",
". . . . . . . . . . . . . . . . . . . . . . . . . . . . . . . . . . . . . . . . . . . . . . . . . . . . . . . . . . . . . . . . . . . . . . . . . . . . . . . . . . . . . . . . . . . . . . . . . . . . . . . . . . . . . . . . . . . . . . . . . . . . . . . . . . . . . . . . . . . . . . . . . . . ",
". . . . . . . . . . . . . . . . . . . . . . . . . . . . + + @ . . . . . + + . . . . . . . . . . . . . . . . . . . . . . . . . . . . . . . . . . . . # $ % & * = - ; > . . . . . . . . . . . . . . . . . . . . . . . . . . . . . . . . . . . . . . . . . . . . . . . . . . . . . . . . . . . . . . . . ",
". . . . . . . . . . . . . . . . . . . . . . . . . . . . + + , ' . . . . + + . . . . . . . . . . . . . . . . . . . . . . . . . . . . . . . . . . . ) ! + + + + + + + + . . . . . . . . . . . . . . . . . . . . . . . . . . . . . . . . . . . . . . . . . . . . . . . . . . . . . . . . . . . . . . . . ",
". . . . . . . . . . . . . . . . . . . . . . . . . . . . + + + ~ . . . . + + . . . . . . . . . . . . . . . . . . . . . . . . . . . . . . . . . . # ! + { ] ^ / ( _ : < . . . . . . . . . . . . . . . . . . . . . . . . . . . . . . . . . . . . . . . . . . . . . . . . . . . . . . . . . . . . . . . . ",
". . . . . . . . . . . . . . . . . . . . . . . . . . . . + + [ + } . . . + + . . . . | % 1 2 3 4 5 . . 6 2 7 8 . . 9 + - . . 8 7 0 6 . . . . . . $ + a b . . . . . . . . . . . c d 1 e f g . . . . . + + 5 h = & i . j k l & m n . . . . . | % 1 2 3 4 5 . . . . . . . . . . . . . . . . . . . . . . . ",
". . . . . . . . . . . . . . . . . . . . . . . . . . . . + + o * p 6 . . + + . . n q + + + + + + r b . . s + t . u 7 + 7 5 . v + w . . . . . . . x + y . . . . . . . . . . . . + + + + + , z . . . . + + A + + + + B C + + + + D . . . n q + + + + + + r b . . . . . . . . . . . . . . . . . . . . . . ",
". . . . . . . . . . . . . . . . . . . . . . . . . . . . + + . E + F . . + + . . G + p } 5 / z s + H . . I + J . K + L + M . N + m . . . . . . . O + j . . . + + + + + . . . . P Q R ^ S + S . . . . + + T ' U V + W T ' U V + X . . . G + p } 5 / z s + H . . . . . . . . . . . . . . . . . . . . . . ",
". . . . . . . . . . . . . . . . . . . . . . . . . . . . + + . u & Y Z . + + . . ` +  .. . . . ..+ +.. . @.+ P . V + #.+ $.. k + %.. . . . . . . * + &.. . . + + + + + . . . . . . . . *.+ =.. . . . + + -.. . j + + -.. . j + ;.. . . ` +  .. . . . ..+ +.. . . . . . . . . . . . . . . . . . . . . . ",
". . . . . . . . . . . . . . . . . . . . . . . . . . . . + + . . >.+ P . + + . . Y + + + + + + + + , . . b ,.'.. ).!.n ~.` . L ,.{.. . . . . . . ].+ ^.. . . . . . + + . . . /.N - Y + + + 2 . . . . + + /.. . . + + /.. . . + + . . . Y + + + + + + + + , . . . . . . . . . . . . . . . . . . . . . . ",
". . . . . . . . . . . . . . . . . . . . . . . . . . . . + + . . /.(.+ _.+ + . . e + + + + + + + + + . . . ).+ :.7 h . <., Z + ).. . . . . . . . s + K . . . . . . + + . . . V + + + + + + + . . . . + + . . . . + + . . . . + + . . . e + + + + + + + + + . . . . . . . . . . . . . . . . . . . . . . ",
". . . . . . . . . . . . . . . . . . . . . . . . . . . . + + . . . g + [.+ + . . }.+ |.. . . . . . . . . . E + 1.+ 2.. | + @ + 3.. . . . . . . . N + X / . . . . . + + . . . O + 4.5 n b + + . . . . + + . . . . + + . . . . + + . . . }.+ |.. . . . . . . . . . . . . . . . . . . . . . . . . . . . . ",
". . . . . . . . . . . . . . . . . . . . . . . . . . . . + + . . . . 5.+ + + . . 6.+ 7.8.9.&.0.a.b.f . . . c.+ d.+ e.. f.+ 1 + g.. . . . . . . . {.'.+ f %.*./...D + + . . . e + } 0.h.i.+ + . . . . + + . . . . + + . . . . + + . . . 6.+ 7.8.9.&.0.a.b.f . . . . . . . . . . . . . . . . . . . . . . ",
". . . . . . . . . . . . . . . . . . . . . . . . . . . . + + . . . . ) 2 + + . . . j.+ + + + + + + + . . . j + + 9 . . . k.+ + j . . . . . . . . . l.=.+ + + + + + , m.. . . n.+ + + + o.+ + . . . . + + . . . . + + . . . . + + . . . . j.+ + + + + + + + . . . . . . . . . . . . . . . . . . . . . . ",
". . . . . . . . . . . . . . . . . . . . . . . . . . . . + + . . . . . 4 + + . . . . g P p., e r q.r.. . . . s.+ 4 . . . @ + a . . . . . . . . . . . 5 t.}.= ,.7.u.:.. . . . ^.v.Y w.x.5 + + . . . . + + . . . . + + . . . . + + . . . . . g P p., e r q.r.. . . . . . . . . . . . . . . . . . . . . . ",
". . . . . . . . . . . . . . . . . . . . . . . . . . . . . . . . . . . . . . . . . . . . . . . . . . . . . . . . . . . . . . . . . . . . . . . . . . . . . . . . . . . . . . . . . . . . . . . . . . . . . . . . . . . . . . . . . . . . . . . . . . . . . . . . . . . . . . . . . . . . . . . . . . . ",
". . . . . . . . . . . . . . . . . . . . . . . . . . . . . . . . . . . . . . . . . . . . . . . . . . . . . . . . . . . . . . . . . . . . . . . . . . . . . . . . . . . . . . . . . . . . . . . . . . . . . . . . . . . . . . . . . . . . . . . . . . . . . . . . . . . . . . . . . . . . . . . . . . . ",
". . . . . . . . . . . . . . . . . . . . . . . . . . . . . . . . . . . . . . . . . . . . . . . . . . . . . . . . . . . . . . . . . . . . . . . . . . . . . . . . . . . . . . . . . . . . . . . . . . . . . . . . . . . . . . . . . . . . . . . . . . . . . . . . . . . . . . . . . . . . . . . . . . . ",
". . . . . . . . . . . . . . . . . . . . . . . . . . . . . . . . . . . . . . . . . . . . . . . . . . . . . . . . . . . . . . . . . . . . . . . . . . . . . . . . . . . . . . . . . . . . . . . . . . . . . . . . . . . . . . . . . . . . . . . . . . . . . . . . . . . . . . . . . . . . . . . . . . . ",
". . . . . . . . . . . . . . . . . . . . . . . . . . . . . . . . . . . . . . . . . . . . . . . . . . . . . . . . . . . . . . . . . . . . . . . . . . . . . . . . . . . . . . . . . . . . . . . . . . . . . . . . . . . . . . . . . . . . . . . . . . . . . . . . . . . . . . . . . . . . . . . . . . . ",
". . . . . . . . . . . . . . . . . . . . . . . . . . . . . . . . . . . . . . . . . . . . . . . . . . . . . . . . . . . . . . . . . . . . . . . . . . . . . . . . . . . . . . . . . . . . . . . . . . . . . . . . . . . . . . . . . . . . . . . . . . . . . . . . . . . . . . . . . . . . . . . . . . . ",
". . . . . . . . . . . . . . . . . . . . . . . . . . . . . . . . . . . . . . . . . . . . . . . . . . . . . . . . . . . . . . . . . . . . . . . . . . . . . . . . . . . . . . . . . . . . . . . . . . . . . . . . . . . . . . . . . . . . . . . . . . . . . . . . . . . . . . . . . . . . . . . . . . . ",
". . . . . . . . . . . . . . . . . . . . . . . . . . . . . . . . . . . . . . . . . . . . . . . . . . . . . . . . . . . . . . . . . . . . . . . . . . . . . . . . . . . . . . . . . . . . . . . . . . . . . . . . . . . . . . . . . . . . . . . . . . . . . . . . . . . . . . . . . . . . . . . . . . . ",
". . . . . . . . . . . . . . . . . . . . . . . . . . . . . . . . . . . . . . . . . . . . . . . . . . . . . . . . . . . . . . . . . . . . . . . . . . . . . . . . . . . . . . . . . . . . . . . . . . . . . . . . . . . . . . . . . . . . . . . . . . . . . . . . . . . . . . . . . . . . . . . . . . . ",
". . . . . . . . . . . . . . . . . . . . . . . . . . . . . . . . . . . . . . . . . . . . . . . . . . . . . . . . . . . . . . . . . . . . . . . . . . . . . . . . . . . . . . . . . . . . . . . . . . . . . . . . . . . . . . . . . . . . . . . . . . . . . . . . . . . . . . . . . . . . . . . . . . . ",
". . . . . . . . . . . . . . . . . . . . . . . . . . . . . . . . . . . . . . . . . . . . . . . . . . . . . . . . . . . . . . . . . . . . . . . . . . . . . . . . . . . . . . . . . . . . . . . . . . . . . . . . . . . . . . . . . . . . . . . . . . . . . . . . . . . . . . . . . . . . . . . . . . . ",
". . . . . . . . . . . . . . . . . . . . . . . . . . . . . . . . . . . . . . . . . . . . . . . . . . . . . . . . . . . . . . . . . . . . . . . . . . . . . . . . . . . . . . . . . . . . . . . . . . . . . . . . . . . . . . . . . . . . . . . . . . . . . . . . . . . . . . . . . . . . . . . . . . . ",
". . . . . . . . . . . . . . . . . . . . . . . . . . . . . . . . . . . . . . . . . . . . . . . . . . . . . . . . . . . . . . . . . . . . . . . . . . . . . . . . . . . . . . . . . . . . . . . . . . . . . . . . . . . . . . . . . . . . . . . . . . . . . . . . . . . . . . . . . . . . . . . . . . . ",
". . . . . . . . . . . . . . . . . . . . . . . . . . . . . . . . . . . . . . . . . . . . . . . . . . . . . . . . . . . . . . . . . . . . . . . . . . . . . . . . . . . . . . . . . . . . . . . . . . . . . . . . . . . . . . . . . . . . . . . . . . . . . . . . . . . . . . . . . . . . . . . . . . . ",
". . . . . . . . . . . . . . . . . . . . . . . . . . . . . . . . . . . . . . . . . . . . . . . . . . . . . . . . . . . . . . . . . . . . . . . . . . . . . . . . . . . . . . . . . . . . . . . . . . . . . . . . . . . . . . . . . . . . . . . . . . . . . . . . . . . . . . . . . . . . . . . . . . . ",
". . . . . . . . . . . . . . . . . . . . . . . . . . . . . . . . . . . . . . . . . . . . . . . . . . . . . . . . . . . . . . . . . . . . . . . . . . . . . . . . . . . . . . . . . . . . . . . . . . . . . . . . . . . . . . . . . . . . . . . . . . . . . . . . . . . . . . . . . . . . . . . . . . . ",
". . . . . . . . . . . . . . . . . . . . . . . . . . . . . . . . . . . . . . . . . . . . . . . . . . . . . . . . . . . . . . . . . . . . . . . . . . . . . . . . . . . . . . . . . . . . . . . . . . . . . . . . . . . . . . . . . . . . . . . . . . . . . . . . . . . . . . . . . . . . . . . . . . . ",
". . . . . . . . . . . . . . . . . . . . . . . . . . . . . . . . . . . . . . . . . . . . . . . . . . . . . . . . . . . . . . . . . . . . . . . . . . . . . . . . . . . . . . . . . . . . . . . . . . . . . . . . . . . . . . . . . . . . . . . . . . . . . . . . . . . . . . . . . . . . . . . . . . . "};
