/* XPM */
static char * objectives_xpm[] = {
"138 41 162 2",
"  	c #F9FF9D",
". 	c #DBE08A",
"+ 	c #75784A",
"@ 	c #31321F",
"# 	c #0D0D08",
"$ 	c #020201",
"% 	c #000000",
"& 	c #8F925A",
"* 	c #070704",
"= 	c #3E3F27",
"- 	c #CBD080",
"; 	c #F1F798",
"> 	c #CACF7F",
", 	c #3D3E26",
"' 	c #DADF89",
") 	c #202114",
"! 	c #EEF496",
"~ 	c #ECF295",
"{ 	c #1E1F13",
"] 	c #747749",
"^ 	c #8D9059",
"/ 	c #8A8D57",
"( 	c #F7FD9C",
"_ 	c #888B56",
": 	c #252617",
"< 	c #222316",
"[ 	c #838653",
"} 	c #F5FB9B",
"| 	c #D6DB87",
"1 	c #6B6E44",
"2 	c #2A2B1A",
"3 	c #0C0C07",
"4 	c #060604",
"5 	c #1D1E12",
"6 	c #585A37",
"7 	c #C3C87B",
"8 	c #DFE48C",
"9 	c #797C4C",
"0 	c #353621",
"a 	c #11110A",
"b 	c #040402",
"c 	c #17180F",
"d 	c #555736",
"e 	c #BBBF76",
"f 	c #2E2F1D",
"g 	c #D5DA86",
"h 	c #2F301E",
"i 	c #B9BD74",
"j 	c #535534",
"k 	c #1F2014",
"l 	c #080805",
"m 	c #414329",
"n 	c #7F8250",
"o 	c #CFD483",
"p 	c #CDD281",
"q 	c #CCD181",
"r 	c #63653E",
"s 	c #575937",
"t 	c #9FA364",
"u 	c #828552",
"v 	c #A9AD6B",
"w 	c #8C8F58",
"x 	c #9CA063",
"y 	c #9B9F62",
"z 	c #8E9159",
"A 	c #95995E",
"B 	c #EDF396",
"C 	c #DDE28B",
"D 	c #32331F",
"E 	c #C6CB7D",
"F 	c #030302",
"G 	c #61633D",
"H 	c #ACB06C",
"I 	c #050503",
"J 	c #94985E",
"K 	c #E8EE93",
"L 	c #F0F697",
"M 	c #4B4D2F",
"N 	c #E4EA90",
"O 	c #62643E",
"P 	c #E6EC91",
"Q 	c #76794B",
"R 	c #E4E98F",
"S 	c #EFF597",
"T 	c #8B8E57",
"U 	c #010101",
"V 	c #F6FC9B",
"W 	c #B4B871",
"X 	c #45472C",
"Y 	c #E7ED92",
"Z 	c #898C56",
"` 	c #4E5031",
" .	c #292A1A",
"..	c #282919",
"+.	c #505232",
"@.	c #12120B",
"#.	c #E9EF93",
"$.	c #14140C",
"%.	c #16170E",
"&.	c #E0E58D",
"*.	c #AFB36E",
"=.	c #333420",
"-.	c #484A2E",
";.	c #AAAE6B",
">.	c #E5EB91",
",.	c #30311E",
"'.	c #15160E",
").	c #B0B46F",
"!.	c #C5CA7C",
"~.	c #4A4C2F",
"{.	c #DEE38C",
"].	c #737649",
"^.	c #EAF094",
"/.	c #6E7146",
"(.	c #727548",
"_.	c #A6AA69",
":.	c #6C6F44",
"<.	c #43452A",
"[.	c #D9DE89",
"}.	c #B5B972",
"|.	c #A0A465",
"1.	c #F8FE9C",
"2.	c #3C3D26",
"3.	c #D0D583",
"4.	c #090906",
"5.	c #3F4128",
"6.	c #F2F899",
"7.	c #3E4027",
"8.	c #A8AC6A",
"9.	c #BEC378",
"0.	c #15150D",
"a.	c #B2B670",
"b.	c #F3F999",
"c.	c #C9CE7F",
"d.	c #C0C579",
"e.	c #191A10",
"f.	c #383923",
"g.	c #D2D784",
"h.	c #9DA163",
"i.	c #91955C",
"j.	c #6F7246",
"k.	c #93975D",
"l.	c #777A4B",
"m.	c #343521",
"n.	c #242517",
"o.	c #212215",
"p.	c #818451",
"q.	c #F4FA9A",
"r.	c #64663F",
"s.	c #0A0A06",
"t.	c #7A7D4D",
"u.	c #787B4C",
"v.	c #10100A",
"w.	c #BABE75",
"x.	c #7D804F",
"y.	c #7B7E4E",
"z.	c #565836",
"A.	c #BFC479",
"B.	c #0F0F09",
"C.	c #979B5F",
"D.	c #C7CC7E",
"E.	c #515333",
"                                                                                                                                                                                                                                                                                    ",
"                                                                                                                                                                                                                                                                                    ",
"                                                                                                                                                                                                                                                                                    ",
"                                                                                                                                                                                                                                                                                    ",
"                                                                                                                                                                                                                                                                                    ",
"                                                                                                                                                                                                                                                                                    ",
"                                                                                                                                                                                                                                                                                    ",
"                                                                                                                                                                                                                                                                                    ",
"                                                                                                                                                                                                                                                                                    ",
"                                                                                                                                                                                                                                                                                    ",
"                                                                                                                                                                                                                                                                                    ",
"                                                                                                                                                                                                                                                                                    ",
"                                                                                                                                                                                                                                                                                    ",
"                                                                                                                                                                                                                                                                                    ",
"                            . + @ # $ # @ + .             % % % %                     % % % %                                                                               % % % %                                                                                                 ",
"                          & * % % % % % % % * &           % % % %                     % % % %                                                           % % % %             % % % %                                                                                                 ",
"                        & % % % = - ; > , % % % &         % % % %                     % % % %                                                           % % % %             % % % %                                                                                                 ",
"                      ' * % % ) !       ~ { % % * .       % % % %                                                                                       % % % %                                                                                                                     ",
"                      ] % % % ^           / % % % +       % % % % ( _ : * < [ }       % % % %         | 1 2 3 4 5 6 7             8 9 0 a b c d e   % % % % % % % % % %     % % % %   f % % % g     g % % % h         | 1 2 3 4 5 6 7           i j k l b c m n o                   ",
"                      @ % % % p           q % % % @       % % % % r % % % % % s       % % % %       t l % % % % % % $ u         v # % % % % % % %   % % % % % % % % % %     % % % %   w % % % x     y % % % z       t l % % % % % % $ u       A % % % % % % % % %                   ",
"                      # % % % B           ~ % % % #       % % % % @ C 8 D % % % v     % % % %     E F % % = C ~ G % % % H     - I % % l J K L e M       % % % %             % % % %   N I % % r     O % % 4 P     E F % % = C ~ G % % % H     5 % % % Q R S - T @                   ",
"                      U % % % (           V % % % $       % % % % W     W % % % X     % % % %     j % % % p     Y % % % =     d % % % Z                 % % % %             % % % %     ` % %  .    ..% % +.      j % % % p     Y % % % =     4 % % @.                              ",
"                      # % % % B           ~ % % % #       % % % % #.    #.% % % $.    % % % %     %.% % % % % % % % % % #     c % % % &.                % % % %             % % % %     H % % U K Y U % % *.      %.% % % % % % % % % % #     =.% % % -.9 ;.>.                      ",
"                      ,.% % % p           q % % % @       % % % % (     V % % % b     % % % %     b % % % % % % % % % % %     I % % % }                 % % % %             % % % %     } '.% % ).*.% % c }       b % % % % % % % % % % %     !.c % % % % % F ~.{.                  ",
"                      ].% % % z           / % % % ]       % % % % ^.    #.% % % $.    % % % %     '.% % % K                   %.% % % &.                % % % %             % % % %       /.% % Q + % % (.        '.% % % K                     S _.:.X # % % % <.                  ",
"                      [.4 % % < S       ! k % % 4 '       % % % % }.    }.% % % X     % % % %     ` % % % |.                  d % % % Z                 $ % % % 1.          % % % %       q % % , 2.% % 3.        ` % % % |.                            8 % % % 4.                  ",
"                        w % % % 5.q 6.- 7.% % % w         % % % % =.{.&.=.% % % 8.    % % % %     9.U % % 0.a.b.B c.T D       > I % % l J ^.; d.+.      e.% % % e           % % % %         @ % 4.4.% 0           9.U % % 0.a.b.B c.T D       f.A g.; L h.% % % <                   ",
"                          i.* % % % % % % % 4 i.          % % % % r % % % % % j       % % % %       i.b % % % % % % % %         v # % % % % % % %       j.% % % % % %       % % % %         & % % % % k.            i.b % % % % % % % %       % % % % % % % % $ t                   ",
"                            8 l.m.@.b @.m.Q {.            % % % % ( _ n.4 o.p.q.      % % % %         p r.: s.b %.= t.q           8 u.m.v.F %.j w.      b.x.2 4.% % %       % % % %         P 4 % % l #.              p r.: s.b %.= t.q       p y.= '.F * k z.A.                    ",
"                                                                                    ! % % % B.                                                                                                                                                                                      ",
"                                                                                  ( C.% % % -.                                                                                                                                                                                      ",
"                                                                                  % % % % l D.                                                                                                                                                                                      ",
"                                                                                  % $ 0.E.-                                                                                                                                                                                         ",
"                                                                                                                                                                                                                                                                                    ",
"                                                                                                                                                                                                                                                                                    ",
"                                                                                                                                                                                                                                                                                    ",
"                                                                                                                                                                                                                                                                                    ",
"                                                                                                                                                                                                                                                                                    ",
"                                                                                                                                                                                                                                                                                    ",
"                                                                                                                                                                                                                                                                                    ",
"                                                                                                                                                                                                                                                                                    "};
