/* XPM */
static char * Play_xpm[] = {
"147 48 86 1",
" 	c #F9EF5C",
".	c #000000",
"+	c #0C0B04",
"@	c #3C3916",
"#	c #AFA841",
"$	c #ADA640",
"%	c #E4DA54",
"&	c #5A5621",
"*	c #363414",
"=	c #E7DE56",
"-	c #090803",
";	c #B6AE43",
">	c #49461B",
",	c #0F0E05",
"'	c #383515",
")	c #B8B044",
"!	c #D4CB4E",
"~	c #020201",
"{	c #0A0904",
"]	c #E6DD55",
"^	c #E9E056",
"/	c #0B0A04",
"(	c #E8DF56",
"_	c #050502",
":	c #C7BF4A",
"<	c #53501F",
"[	c #817C30",
"}	c #878132",
"|	c #4E4B1D",
"1	c #E4DB54",
"2	c #5D5922",
"3	c #524F1E",
"4	c #C8C04A",
"5	c #F3E95A",
"6	c #DED552",
"7	c #565220",
"8	c #181709",
"9	c #F5EB5B",
"0	c #1C1B0A",
"a	c #C1BA47",
"b	c #ACA540",
"c	c #45431A",
"d	c #9B9539",
"e	c #A49D3D",
"f	c #3B3816",
"g	c #F6EC5B",
"h	c #888232",
"i	c #2F2D11",
"j	c #060602",
"k	c #BBB445",
"l	c #2D2B11",
"m	c #373414",
"n	c #AEA740",
"o	c #6E6A29",
"p	c #393615",
"q	c #B7AF43",
"r	c #C2BB48",
"s	c #29270F",
"t	c #F8EE5C",
"u	c #121106",
"v	c #EAE157",
"w	c #EBE257",
"x	c #46431A",
"y	c #54511F",
"z	c #9A9439",
"A	c #F2E859",
"B	c #D8CF50",
"C	c #55521F",
"D	c #2C2A10",
"E	c #010100",
"F	c #030301",
"G	c #1A190A",
"H	c #4F4C1D",
"I	c #4A471B",
"J	c #A19B3C",
"K	c #E5DC55",
"L	c #504D1E",
"M	c #100F06",
"N	c #5E5A23",
"O	c #D5CC4F",
"P	c #716D2A",
"Q	c #D0C84D",
"R	c #48451B",
"S	c #040401",
"T	c #3F3D17",
"U	c #E0D753",
"                                                                                                                                                   ",
"                                                                                                                                                   ",
"                                                                                                                                                   ",
"                                                                                                                                                   ",
"                                                                                                                                                   ",
"                                                                                                                                                   ",
"                                                                                                                                                   ",
"                                                                                                                                                   ",
"                                                                                                                                                   ",
"                                                                                                                                                   ",
"                                                                                                                                                   ",
"                                                                                                                                                   ",
"                                                                                                                                                   ",
"                                                                                                                                                   ",
"                                                                                                                                                   ",
"                                                                                                                                                   ",
"                                                                   ..                                                                              ",
"                                                        ....+@#    ..                                                                              ",
"                                                        .......$   ..                                                                              ",
"                                                        ..  %&.*   ..                                                                              ",
"                                                        ..   =.-   ..   ;>,-')   !~{]    ^/~                                                       ",
"                                                        ..   (.-   ..   ....._:   <.[    }.|                                                       ",
"                                                        ..  12.*   ..   34567.7   4.85  90.a                                                       ",
"                                                        .......b   ..       ^.0    c.d  e.f                                                        ",
"                                                        ..../f#    ..  ghi{...j    k.l  m.n                                                        ",
"                                                        ..         ..  o.......     p.qr.st                                                        ",
"                                                        ..         ..  u.evtw..     #.xy.z                                                         ",
"                                                        ..         ..  -.bABC..     tDEFG5                                                         ",
"                                                        ..         ..  H....I..      J..}                                                          ",
"                                                        ..         ..  KL{MNv..      O.,w                                                          ",
"                                                                                     z.P                                                           ",
"                                                                                    (c.Q                                                           ",
"                                                                                   ...R                                                            ",
"                                                                                   .STU                                                            ",
"                                                                                                                                                   ",
"                                                                                                                                                   ",
"                                                                                                                                                   ",
"                                                                                                                                                   ",
"                                                                                                                                                   ",
"                                                                                                                                                   ",
"                                                                                                                                                   ",
"                                                                                                                                                   ",
"                                                                                                                                                   ",
"                                                                                                                                                   ",
"                                                                                                                                                   ",
"                                                                                                                                                   ",
"                                                                                                                                                   ",
"                                                                                                                                                   "};
