/* XPM */
static char * scoring_xpm[] = {
"138 41 144 2",
"  	c #F9FF9D",
". 	c #F5FB9B",
"+ 	c #94985E",
"@ 	c #3F4128",
"# 	c #14140C",
"$ 	c #040402",
"% 	c #060604",
"& 	c #2A2B1A",
"* 	c #484A2E",
"= 	c #6F7246",
"- 	c #000000",
"; 	c #EDF396",
"> 	c #393A24",
", 	c #737649",
"' 	c #585A37",
") 	c #DADF89",
"! 	c #DCE18B",
"~ 	c #8B8E57",
"{ 	c #17180F",
"] 	c #1F2014",
"^ 	c #E8EE93",
"/ 	c #5C5E3A",
"( 	c #050503",
"_ 	c #E1E68E",
": 	c #DFE48C",
"< 	c #797C4C",
"[ 	c #353621",
"} 	c #11110A",
"| 	c #555736",
"1 	c #BBBF76",
"2 	c #CDD281",
"3 	c #62643E",
"4 	c #242517",
"5 	c #090906",
"6 	c #080805",
"7 	c #232416",
"8 	c #61633D",
"9 	c #EFF597",
"0 	c #6A6D43",
"a 	c #15150D",
"b 	c #030302",
"c 	c #F8FE9C",
"d 	c #8A8D57",
"e 	c #91945B",
"f 	c #868954",
"g 	c #070704",
"h 	c #888B56",
"i 	c #F7FD9C",
"j 	c #1A1B11",
"k 	c #C3C87B",
"l 	c #A9AD6B",
"m 	c #0D0D08",
"n 	c #95995E",
"o 	c #525434",
"p 	c #666840",
"q 	c #989C60",
"r 	c #565836",
"s 	c #64663F",
"t 	c #747749",
"u 	c #414329",
"v 	c #7D804F",
"w 	c #D1D684",
"x 	c #CBD080",
"y 	c #F0F697",
"z 	c #4B4D2F",
"A 	c #C0C579",
"B 	c #020201",
"C 	c #31321F",
"D 	c #DDE28B",
"E 	c #32331F",
"F 	c #C1C67A",
"G 	c #212215",
"H 	c #C7CC7E",
"I 	c #3E4027",
"J 	c #E7ED92",
"K 	c #8C8F58",
"L 	c #30311E",
"M 	c #A7AB69",
"N 	c #2D2E1C",
"O 	c #F3F999",
"P 	c #545635",
"Q 	c #010101",
"R 	c #5B5D39",
"S 	c #F2F899",
"T 	c #898C56",
"U 	c #505232",
"V 	c #B4B871",
"W 	c #ADB16D",
"X 	c #BCC177",
"Y 	c #45472C",
"Z 	c #B3B771",
"` 	c #B0B46F",
" .	c #BFC479",
"..	c #707347",
"+.	c #E0E58D",
"@.	c #15160E",
"#.	c #E9EF93",
"$.	c #16170E",
"%.	c #EAF094",
"&.	c #F6FC9B",
"*.	c #13130C",
"=.	c #9A9E61",
"-.	c #191A10",
";.	c #D2D784",
">.	c #515333",
",.	c #EBF194",
"'.	c #4F5132",
").	c #B5B972",
"!.	c #46482C",
"~.	c #B8BC74",
"{.	c #5F613C",
"].	c #D8DD88",
"^.	c #CACF7F",
"/.	c #F1F798",
"(.	c #333420",
"_.	c #DEE38C",
":.	c #363722",
"<.	c #2F301E",
"[.	c #91955C",
"}.	c #92965C",
"|.	c #63653E",
"1.	c #A2A666",
"2.	c #6C6F44",
"3.	c #404229",
"4.	c #202114",
"5.	c #0C0C07",
"6.	c #787B4C",
"7.	c #343521",
"8.	c #10100A",
"9.	c #535534",
"0.	c #BABE75",
"a.	c #222316",
"b.	c #858854",
"c.	c #A5A968",
"d.	c #43452A",
"e.	c #3B3C25",
"f.	c #9EA264",
"g.	c #A1A566",
"h.	c #93975D",
"i.	c #676941",
"j.	c #282919",
"k.	c #383923",
"l.	c #777A4B",
"m.	c #D9DE89",
"                                                                                                                                                                                                                                                                                    ",
"                                                                                                                                                                                                                                                                                    ",
"                                                                                                                                                                                                                                                                                    ",
"                                                                                                                                                                                                                                                                                    ",
"                                                                                                                                                                                                                                                                                    ",
"                                                                                                                                                                                                                                                                                    ",
"                                                                                                                                                                                                                                                                                    ",
"                                                                                                                                                                                                                                                                                    ",
"                                                                                                                                                                                                                                                                                    ",
"                                                                                                                                                                                                                                                                                    ",
"                                                                                                                                                                                                                                                                                    ",
"                                                                                                                                                                                                                                                                                    ",
"                                                                                                                                                                                                                                                                                    ",
"                                                                                                                                                                                                                                                                                    ",
"                                                                                                                                                                                                                                                                                    ",
"                                                          . + @ # $ % # & * =                                                                                 - - - -                                                                                                               ",
"                                                        ; > - - - - - - - - -                                                                                 - - - -                                                                                                               ",
"                                                        , - - - ' ) . ! ~ { -                                                                                 - - - -                                                                                                               ",
"                                                        ] - - - ^         ; /                                                                                                                                                                                                       ",
"                                                        ( - - - _                       : < [ } $ { | 1         2 3 4 5 6 7 8 2           - - - - 9 0 a b     - - - -       - - - - c d 7 % 7 e         . f 7 g 4 h i - - - -                                                       ",
"                                                        j - - - @ k i                 l m - - - - - - -       n ( - - - - - - ( n         - - - - o - - -     - - - -       - - - - p - - - - - q       r - - - - - s - - - -                                                       ",
"                                                        t - - - - - m u v w         x ( - - 6 + ^ y 1 z     A B - - C D : E - - B F       - - - - G H i       - - - -       - - - - I J K - - - L     M - - - L D D N - - - -                                                       ",
"                                                        O P - - - - - - - Q R S     | - - - T               U - - - V     V - - - U       - - - - W           - - - -       - - - - X   ^ - - - 6     Y - - - Z     ` - - - -                                                       ",
"                                                             .s 7 - - - - - - ..    { - - - +.              @.- - - #.    #.- - - $.      - - - - %.          - - - -       - - - - ;   &.- - - -     *.- - - #.    ^ - - - -                                                       ",
"                                                                  _ =.7 - - - -.    ( - - - .               $ - - - i     &.- - - (       - - - -             - - - -       - - - -       - - - -     b - - - i     &.- - - -                                                       ",
"                                                                      ;.- - - %     $.- - - +.              @.- - - %.    #.- - - $.      - - - -             - - - -       - - - -       - - - -     *.- - - %.    ^ - - - -                                                       ",
"                                                        >.D           ,.- - - ]     | - - - T               '.- - - ).    ).- - - U       - - - -             - - - -       - - - -       - - - -     !.- - - ~.    ` - - - -                                                       ",
"                                                        - g {.).^ &.].r - - - ..    ^.( - - 6 + %./.A U      .Q - - (._.+.(.- - B A       - - - -             - - - -       - - - -       - - - -     l - - - :.+._.<.- - - -                                                       ",
"                                                        - - - - - - - - - - :.,.      l m - - - - - - -       [.$ - - - - - - $ }.        - - - -             - - - -       - - - -       - - - -       r - - - - - |.- - - -                                                       ",
"                                                        1.2.3.4.5.b % -.!.q .           : 6.7.8.b $.9.0.        x 8 a.6 6 G {.x           - - - -             - - - -       - - - -       - - - -       . b.a.% 7 h ^ - - - 8.                                                      ",
"                                                                                                                                                                                                                    c.- - - d.                                                      ",
"                                                                                                                                                                                                        e.f.D . J g.# - - - ).                                                      ",
"                                                                                                                                                                                                        - - - - - - - - g h.                                                        ",
"                                                                                                                                                                                                        k i.j.5 $ *.k.l.m.                                                          ",
"                                                                                                                                                                                                                                                                                    ",
"                                                                                                                                                                                                                                                                                    ",
"                                                                                                                                                                                                                                                                                    ",
"                                                                                                                                                                                                                                                                                    ",
"                                                                                                                                                                                                                                                                                    ",
"                                                                                                                                                                                                                                                                                    ",
"                                                                                                                                                                                                                                                                                    "};
