/* XPM */
static char * snake_xpm[] = {
"18 18 36 1",
" 	c None",
".	c #FFFFFF",
"+	c #FEFFFE",
"@	c #FAFEFA",
"#	c #E6F8E6",
"$	c #ADE9AD",
"%	c #71DC71",
"&	c #53D553",
"*	c #FDFFFD",
"=	c #93E493",
"-	c #25CE25",
";	c #00C800",
">	c #02C802",
",	c #DAF6DA",
"'	c #5ED95E",
")	c #03C803",
"!	c #05C905",
"~	c #16CD16",
"{	c #27D027",
"]	c #38D438",
"^	c #01C801",
"/	c #0ECB0E",
"(	c #47D747",
"_	c #A2EBA2",
":	c #E7FAE7",
"<	c #FEFEFE",
"[	c #64DD64",
"}	c #DDF8DD",
"|	c #EFFCEF",
"1	c #D0F5D0",
"2	c #BEF1BE",
"3	c #E4F9E4",
"4	c #8FE78F",
"5	c #34D334",
"6	c #09CA09",
"7	c #13CC13",
"...+@#$%&&%$#@+...",
"..*#=-;;>>;;-=#*..",
".*,')!~{]]{~!)',*.",
"+#'^/(_:<<:_(/^'#+",
"@=)/[}|1221|}[/)=@",
"#-!(}34566543}(!-#",
"$;~_|47;;;;74|_~;$",
"%;{:15;;;;;;51:{;%",
"&>]<26;;;;;;62<]>&",
"&>]<26;;;;;;62<]>&",
"%;{:15;;;;;;51:{;%",
"$;~_|47;;;;74|_~;$",
"#-!(}34566543}(!-#",
"@=)/[}|1221|}[/)=@",
"+#'^/(_:<<:_(/^'#+",
".*,')!~{]]{~!)',*.",
"..*#=-;;>>;;-=#*..",
"...+@#$%&&%$#@+..."};
