/* XPM */
static char * wall_xpm[] = {
"18 18 323 2",
"  	c None",
". 	c #80859B",
"+ 	c #9398AE",
"@ 	c #9499AF",
"# 	c #9095AB",
"$ 	c #979DB3",
"% 	c #969CB2",
"& 	c #8890A5",
"* 	c #818AA0",
"= 	c #8993A9",
"- 	c #838EA6",
"; 	c #818DA7",
"> 	c #8390AC",
", 	c #8C9AB7",
"' 	c #8E9BBA",
") 	c #6F7B96",
"! 	c #555C70",
"~ 	c #404753",
"{ 	c #585E6C",
"] 	c #2A2B40",
"^ 	c #34364A",
"/ 	c #414257",
"( 	c #616378",
"_ 	c #8B90A4",
": 	c #989DB1",
"< 	c #888EA1",
"[ 	c #7C8397",
"} 	c #7E859B",
"| 	c #848DA5",
"1 	c #8C96AE",
"2 	c #95A0B9",
"3 	c #8993AE",
"4 	c #8993B1",
"5 	c #79839D",
"6 	c #788091",
"7 	c #5F6571",
"8 	c #4C5260",
"9 	c #0D0C1C",
"0 	c #19182A",
"a 	c #201E30",
"b 	c #232234",
"c 	c #2C2C40",
"d 	c #3D3E51",
"e 	c #585B6E",
"f 	c #6F7386",
"g 	c #717689",
"h 	c #7A7F94",
"i 	c #83899E",
"j 	c #9095AC",
"k 	c #767B93",
"l 	c #737992",
"m 	c #737990",
"n 	c #747A8A",
"o 	c #6F737F",
"p 	c #676A79",
"q 	c #4C4858",
"r 	c #413F4D",
"s 	c #332F40",
"t 	c #2D2A3A",
"u 	c #2C293A",
"v 	c #262436",
"w 	c #2B2A3C",
"x 	c #3E3E50",
"y 	c #4B4B5E",
"z 	c #56576A",
"A 	c #66677B",
"B 	c #808297",
"C 	c #7C7E93",
"D 	c #7A7E93",
"E 	c #7D8296",
"F 	c #8D90A0",
"G 	c #808490",
"H 	c #838694",
"I 	c #504A5A",
"J 	c #484352",
"K 	c #45404F",
"L 	c #4F4B5B",
"M 	c #535060",
"N 	c #3C394A",
"O 	c #262334",
"P 	c #282537",
"Q 	c #343244",
"R 	c #333144",
"S 	c #38364A",
"T 	c #525265",
"U 	c #727286",
"V 	c #7B7C8F",
"W 	c #88899B",
"X 	c #9799A7",
"Y 	c #686A76",
"Z 	c #626470",
"` 	c #686474",
" .	c #514D5D",
"..	c #403D4D",
"+.	c #524F5F",
"@.	c #6C687B",
"#.	c #656275",
"$.	c #4D4B5F",
"%.	c #403D51",
"&.	c #424053",
"*.	c #3C3B4E",
"=.	c #3A3A4C",
"-.	c #5D5C6F",
";.	c #656477",
">.	c #7E7D8E",
",.	c #868795",
"'.	c #646571",
").	c #646572",
"!.	c #747385",
"~.	c #727184",
"{.	c #67667A",
"].	c #626276",
"^.	c #6A697F",
"/.	c #6E6E85",
"(.	c #75748D",
"_.	c #808098",
":.	c #87879E",
"<.	c #707188",
"[.	c #404157",
"}.	c #1A1B2F",
"|.	c #1D1F33",
"1.	c #4D4F62",
"2.	c #767686",
"3.	c #878694",
"4.	c #8D8C9B",
"5.	c #6E7387",
"6.	c #6A6E84",
"7.	c #666A82",
"8.	c #686C85",
"9.	c #6E728C",
"0.	c #747894",
"a.	c #7A7D9B",
"b.	c #8083A0",
"c.	c #878AA7",
"d.	c #888CA7",
"e.	c #787C96",
"f.	c #61657D",
"g.	c #4F546A",
"h.	c #40455B",
"i.	c #53586B",
"j.	c #606373",
"k.	c #757684",
"l.	c #777788",
"m.	c #6A758E",
"n.	c #5E6982",
"o.	c #616B86",
"p.	c #67718E",
"q.	c #6B7492",
"r.	c #767E9F",
"s.	c #828AAC",
"t.	c #8189AB",
"u.	c #777FA0",
"v.	c #7F86A7",
"w.	c #939BB9",
"x.	c #9AA2BE",
"y.	c #878FA9",
"z.	c #788199",
"A.	c #767E93",
"B.	c #6C7082",
"C.	c #505162",
"D.	c #57586B",
"E.	c #66758F",
"F.	c #5F6D89",
"G.	c #62718E",
"H.	c #647291",
"I.	c #626E90",
"J.	c #6A759A",
"K.	c #7580A6",
"L.	c #7984AA",
"M.	c #7B86AB",
"N.	c #838DB1",
"O.	c #929BBD",
"P.	c #8F98B7",
"Q.	c #8D98B4",
"R.	c #8A95AE",
"S.	c #808AA0",
"T.	c #81869A",
"U.	c #3A3C4E",
"V.	c #505166",
"W.	c #72829D",
"X.	c #6B7B97",
"Y.	c #6E7D9C",
"Z.	c #6C7A9C",
"`.	c #667398",
" +	c #6A769E",
".+	c #717DA5",
"++	c #7984AE",
"@+	c #848EB7",
"#+	c #828CB2",
"$+	c #848EB1",
"%+	c #7A84A4",
"&+	c #8791AE",
"*+	c #8F9AB3",
"=+	c #7E879E",
"-+	c #9297AD",
";+	c #41455A",
">+	c #515369",
",+	c #74829E",
"'+	c #6A7A95",
")+	c #6C7A98",
"!+	c #6C7A9B",
"~+	c #6B789C",
"{+	c #717BA3",
"]+	c #717BA4",
"^+	c #747DA7",
"/+	c #7880A9",
"(+	c #777FA4",
"_+	c #7D84A6",
":+	c #7E85A4",
"<+	c #838BA5",
"[+	c #8B92AA",
"}+	c #7F869C",
"|+	c #656B82",
"1+	c #2C3249",
"2+	c #262942",
"3+	c #737F98",
"4+	c #68758E",
"5+	c #66728F",
"6+	c #677291",
"7+	c #697295",
"8+	c #6E769D",
"9+	c #6B7199",
"0+	c #6E739B",
"a+	c #7A7FA6",
"b+	c #797DA2",
"c+	c #6E7293",
"d+	c #707590",
"e+	c #6E748B",
"f+	c #5D6176",
"g+	c #33384C",
"h+	c #20263E",
"i+	c #2F354E",
"j+	c #424763",
"k+	c #768095",
"l+	c #6E778D",
"m+	c #6A728D",
"n+	c #686F8D",
"o+	c #686E8F",
"p+	c #6D7296",
"q+	c #6A6C93",
"r+	c #6B6D93",
"s+	c #78799D",
"t+	c #78789A",
"u+	c #767795",
"v+	c #74748D",
"w+	c #56566A",
"x+	c #3F4051",
"y+	c #4E5062",
"z+	c #646980",
"A+	c #737C96",
"B+	c #848BA8",
"C+	c #6E7487",
"D+	c #6B7285",
"E+	c #6C7388",
"F+	c #6A7088",
"G+	c #6C708D",
"H+	c #767998",
"I+	c #787999",
"J+	c #757695",
"K+	c #7E7E9B",
"L+	c #73728D",
"M+	c #615F76",
"N+	c #565366",
"O+	c #45424F",
"P+	c #403D48",
"Q+	c #72707D",
"R+	c #A6A9C1",
"S+	c #8189A5",
"T+	c #838AA7",
"U+	c #545768",
"V+	c #484E5F",
"W+	c #5E6475",
"X+	c #686E80",
"Y+	c #767B8F",
"Z+	c #81859A",
"`+	c #8C8EA2",
" @	c #808294",
".@	c #717281",
"+@	c #4E4D5B",
"@@	c #3D3A45",
"#@	c #3E3A41",
"$@	c #555053",
"%@	c #544D4D",
"&@	c #777177",
"*@	c #A09EB2",
"=@	c #8D8EAC",
"-@	c #767A9A",
";@	c #6F7282",
">@	c #848796",
",@	c #8D93A1",
"'@	c #7B818F",
")@	c #7A7F8E",
"!@	c #838897",
"~@	c #878C9A",
"{@	c #535763",
"]@	c #10121C",
"^@	c #0C0B12",
"/@	c #0F0D12",
"(@	c #181315",
"_@	c #332B2A",
":@	c #4D4442",
"<@	c #5D5659",
"[@	c #656274",
"}@	c #9493B1",
"|@	c #8384A3",
"1@	c #898C9B",
"2@	c #848897",
"3@	c #8F95A5",
"4@	c #979DAD",
"5@	c #8B91A1",
"6@	c #808797",
"7@	c #595F6E",
"8@	c #222734",
"9@	c #030713",
"0@	c #040610",
"a@	c #03020B",
"b@	c #0A080E",
"c@	c #0F0B0F",
"d@	c #282225",
"e@	c #484247",
"f@	c #474451",
"g@	c #65667A",
"h@	c #7C7E95",
". + @ # $ % & * = - ; > , ' ) ! ~ { ",
"] ^ / ( _ : < [ } | 1 2 3 4 5 6 7 8 ",
"9 0 a b c d e f g h i j k l m n o p ",
"q r s t u v w x y z A B C D E F G H ",
"I J K L M N O P Q R S T U V W X Y Z ",
"`  ...+.@.#.$.%.&.*.R =.-.;.>.,.'.).",
"!.~.{.].^./.(._.:.<.[.}.}.|.1.2.3.4.",
"5.6.7.8.9.0.a.b.c.d.e.f.g.h.i.j.k.l.",
"m.n.o.p.q.r.s.t.u.v.w.x.y.z.A.B.C.D.",
"E.F.G.H.I.J.K.L.M.N.O.P.Q.R.S.T.U.V.",
"W.X.Y.Z.`. +.+++@+#+$+%+&+*+=+-+;+>+",
",+'+)+!+~+{+]+^+/+(+_+:+<+[+}+|+1+2+",
"3+4+5+6+7+8+9+0+a+b+c+d+e+f+g+h+i+j+",
"k+l+m+n+o+p+q+r+s+t+u+v+w+x+y+z+A+B+",
"C+D+E+F+G+H+I+J+K+L+M+N+O+P+Q+R+S+T+",
"U+V+W+X+Y+Z+`+ @.@+@@@#@$@%@&@*@=@-@",
";@>@,@'@)@!@~@{@]@^@/@(@_@:@<@[@}@|@",
"1@2@3@4@5@6@7@8@9@0@a@b@c@d@e@f@g@h@"};
